  0
SECTION
  2
HEADER
  9
$ACADVER
  1
AC1014
  9
$HANDSEED
  5
FFFF
  9
$MEASUREMENT
 70
     1
  0
ENDSEC
  0
SECTION
  2
TABLES
  0
TABLE
  2
VPORT
  5
8
330
0
100
AcDbSymbolTable
 70
     4
  0
VPORT
  5
2E
330
8
100
AcDbSymbolTableRecord
100
AcDbViewportTableRecord
  2
*ACTIVE
 70
     0
 10
0.0
 20
0.0
 11
1.0
 21
1.0
 12
210.0
 22
148.5
 13
0.0
 23
0.0
 14
10.0
 24
10.0
 15
10.0
 25
10.0
 16
0.0
 26
0.0
 36
1.0
 17
0.0
 27
0.0
 37
0.0
 40
341.0
 41
1.24
 42
50.0
 43
0.0
 44
0.0
 50
0.0
 51
0.0
 71
     0
 72
   100
 73
     1
 74
     3
 75
     0
 76
     0
 77
     0
 78
     0
  0
ENDTAB
  0
TABLE
  2
LTYPE
  5
5
330
0
100
AcDbSymbolTable
 70
     1
  0
LTYPE
  5
14
330
5
100
AcDbSymbolTableRecord
100
AcDbLinetypeTableRecord
  2
BYBLOCK
 70
     0
  3

 72
    65
 73
     0
 40
0.0
  0
LTYPE
  5
15
330
5
100
AcDbSymbolTableRecord
100
AcDbLinetypeTableRecord
  2
BYLAYER
 70
     0
  3

 72
    65
 73
     0
 40
0.0
  0
LTYPE
  5
16
330
5
100
AcDbSymbolTableRecord
100
AcDbLinetypeTableRecord
  2
CONTINUOUS
 70
     0
  3
Solid line
 72
    65
 73
     0
 40
0.0
  0
ENDTAB
  0
TABLE
  2
LAYER
  5
2
100
AcDbSymbolTable
 70
15
  0
LAYER
  5
50
100
AcDbSymbolTableRecord
100
AcDbLayerTableRecord
  2
0
 70
0
  6
CONTINUOUS
  0
LAYER
  5
51
100
AcDbSymbolTableRecord
100
AcDbLayerTableRecord
  2
black
 70
0
  6
CONTINUOUS
  0
LAYER
  5
52
100
AcDbSymbolTableRecord
100
AcDbLayerTableRecord
  2
white
 70
0
  6
CONTINUOUS
  0
LAYER
  5
53
100
AcDbSymbolTableRecord
100
AcDbLayerTableRecord
  2
Layer_1
 70
0
  6
CONTINUOUS
  0
LAYER
  5
54
100
AcDbSymbolTableRecord
100
AcDbLayerTableRecord
  2
board_outline_and_fill
 70
0
  6
CONTINUOUS
  0
LAYER
  5
55
100
AcDbSymbolTableRecord
100
AcDbLayerTableRecord
  2
board_outline_and_fill_black
 70
0
  6
CONTINUOUS
  0
LAYER
  5
56
100
AcDbSymbolTableRecord
100
AcDbLayerTableRecord
  2
ground_mask
 70
0
  6
CONTINUOUS
  0
LAYER
  5
57
100
AcDbSymbolTableRecord
100
AcDbLayerTableRecord
  2
leaf_1_silk
 70
0
  6
CONTINUOUS
  0
LAYER
  5
58
100
AcDbSymbolTableRecord
100
AcDbLayerTableRecord
  2
leaf1
 70
0
  6
CONTINUOUS
  0
LAYER
  5
59
100
AcDbSymbolTableRecord
100
AcDbLayerTableRecord
  2
leaf_2
 70
0
  6
CONTINUOUS
  0
LAYER
  5
5a
100
AcDbSymbolTableRecord
100
AcDbLayerTableRecord
  2
silkscreen_1_mask
 70
0
  6
CONTINUOUS
  0
LAYER
  5
5b
100
AcDbSymbolTableRecord
100
AcDbLayerTableRecord
  2
silkscreen
 70
0
  6
CONTINUOUS
  0
LAYER
  5
5c
100
AcDbSymbolTableRecord
100
AcDbLayerTableRecord
  2
leaf_3_silk
 70
0
  6
CONTINUOUS
  0
LAYER
  5
5d
100
AcDbSymbolTableRecord
100
AcDbLayerTableRecord
  2
board_cutout_white
 70
0
  6
CONTINUOUS
  0
LAYER
  5
5e
100
AcDbSymbolTableRecord
100
AcDbLayerTableRecord
  2
board_cutout_black
 70
0
  6
CONTINUOUS
  0
ENDTAB
  0
TABLE
  2
STYLE
  5
3
330
0
100
AcDbSymbolTable
 70
     1
  0
STYLE
  5
11
330
3
100
AcDbSymbolTableRecord
100
AcDbTextStyleTableRecord
  2
STANDARD
 70
     0
 40
0.0
 41
1.0
 50
0.0
 71
     0
 42
2.5
  3
txt
  4

  0
ENDTAB
  0
TABLE
  2
VIEW
  5
6
330
0
100
AcDbSymbolTable
 70
     0
  0
ENDTAB
  0
TABLE
  2
UCS
  5
7
330
0
100
AcDbSymbolTable
 70
     0
  0
ENDTAB
  0
TABLE
  2
APPID
  5
9
330
0
100
AcDbSymbolTable
 70
     2
  0
APPID
  5
12
330
9
100
AcDbSymbolTableRecord
100
AcDbRegAppTableRecord
  2
ACAD
 70
     0
  0
ENDTAB
  0
TABLE
  2
DIMSTYLE
  5
A
330
0
100
AcDbSymbolTable
 70
     1
  0
DIMSTYLE
105
27
330
A
100
AcDbSymbolTableRecord
100
AcDbDimStyleTableRecord
  2
ISO-25
 70
     0
  3

  4

  5

  6

  7

 40
1.0
 41
2.5
 42
0.625
 43
3.75
 44
1.25
 45
0.0
 46
0.0
 47
0.0
 48
0.0
140
2.5
141
2.5
142
0.0
143
0.03937007874016
144
1.0
145
0.0
146
1.0
147
0.625
 71
     0
 72
     0
 73
     0
 74
     0
 75
     0
 76
     0
 77
     1
 78
     8
170
     0
171
     3
172
     1
173
     0
174
     0
175
     0
176
     0
177
     0
178
     0
270
     2
271
     2
272
     2
273
     2
274
     3
340
11
275
     0
280
     0
281
     0
282
     0
283
     0
284
     8
285
     0
286
     0
287
     3
288
     0
  0
ENDTAB
  0
TABLE
  2
BLOCK_RECORD
  5
1
330
0
100
AcDbSymbolTable
 70
     1
  0
BLOCK_RECORD
  5
1F
330
1
100
AcDbSymbolTableRecord
100
AcDbBlockTableRecord
  2
*MODEL_SPACE
  0
BLOCK_RECORD
  5
1B
330
1
100
AcDbSymbolTableRecord
100
AcDbBlockTableRecord
  2
*PAPER_SPACE
  0
ENDTAB
  0
ENDSEC
  0
SECTION
  2
BLOCKS
  0
BLOCK
  5
20
330
1F
100
AcDbEntity
  8
0
100
AcDbBlockBegin
  2
*MODEL_SPACE
 70
     0
 10
0.0
 20
0.0
 30
0.0
  3
*MODEL_SPACE
  1

  0
ENDBLK
  5
21
330
1F
100
AcDbEntity
  8
0
100
AcDbBlockEnd
  0
BLOCK
  5
1C
330
1B
100
AcDbEntity
 67
     1
  8
0
100
AcDbBlockBegin
  2
*PAPER_SPACE
  1

  0
ENDBLK
  5
1D
330
1B
100
AcDbEntity
 67
     1
  8
0
100
AcDbBlockEnd
  0
ENDSEC
  0
SECTION
  2
ENTITIES
  0
SPLINE
  5
100
100
AcDbEntity
  8
board_outline_and_fill_black
 62
7
100
AcDbSpline
 70
8
 71
3
 72
8
 73
4
 74
0
 40
0
 40
0
 40
0
 40
0
 40
1
 40
1
 40
1
 40
1
 10
7.246272
 20
59.006401
 30
0.0
 10
7.272446
 20
58.946425
 30
0.0
 10
7.362465
 20
58.749552
 30
0.0
 10
7.472815
 20
58.297498
 30
0.0
  0
SPLINE
  5
101
100
AcDbEntity
  8
board_outline_and_fill_black
 62
7
100
AcDbSpline
 70
8
 71
3
 72
8
 73
4
 74
0
 40
0
 40
0
 40
0
 40
0
 40
1
 40
1
 40
1
 40
1
 10
7.472815
 20
58.297498
 30
0.0
 10
7.819681
 20
56.833533
 30
0.0
 10
6.950997
 20
56.655116
 30
0.0
 10
6.526301
 20
56.309203
 30
0.0
  0
SPLINE
  5
102
100
AcDbEntity
  8
board_outline_and_fill_black
 62
7
100
AcDbSpline
 70
8
 71
3
 72
8
 73
4
 74
0
 40
0
 40
0
 40
0
 40
0
 40
1
 40
1
 40
1
 40
1
 10
6.526301
 20
56.309203
 30
0.0
 10
6.298630
 20
56.123883
 30
0.0
 10
6.083848
 20
55.948822
 30
0.0
 10
5.927859
 20
55.712471
 30
0.0
  0
SPLINE
  5
103
100
AcDbEntity
  8
board_outline_and_fill_black
 62
7
100
AcDbSpline
 70
8
 71
3
 72
8
 73
4
 74
0
 40
0
 40
0
 40
0
 40
0
 40
1
 40
1
 40
1
 40
1
 10
5.927859
 20
55.712471
 30
0.0
 10
5.552879
 20
55.147436
 30
0.0
 10
5.428324
 20
53.942792
 30
0.0
 10
5.665728
 20
53.186914
 30
0.0
  0
SPLINE
  5
104
100
AcDbEntity
  8
board_outline_and_fill_black
 62
7
100
AcDbSpline
 70
8
 71
3
 72
8
 73
4
 74
0
 40
0
 40
0
 40
0
 40
0
 40
1
 40
1
 40
1
 40
1
 10
5.665728
 20
53.186914
 30
0.0
 10
5.869724
 20
52.537835
 30
0.0
 10
6.272588
 20
52.326867
 30
0.0
 10
7.091467
 20
51.948599
 30
0.0
  0
SPLINE
  5
105
100
AcDbEntity
  8
board_outline_and_fill_black
 62
7
100
AcDbSpline
 70
8
 71
3
 72
8
 73
4
 74
0
 40
0
 40
0
 40
0
 40
0
 40
1
 40
1
 40
1
 40
1
 10
7.091467
 20
51.948599
 30
0.0
 10
7.362278
 20
51.823913
 30
0.0
 10
7.641902
 20
51.694360
 30
0.0
 10
7.936651
 20
51.528901
 30
0.0
  0
SPLINE
  5
106
100
AcDbEntity
  8
board_outline_and_fill_black
 62
7
100
AcDbSpline
 70
8
 71
3
 72
8
 73
4
 74
0
 40
0
 40
0
 40
0
 40
0
 40
1
 40
1
 40
1
 40
1
 10
7.936651
 20
51.528901
 30
0.0
 10
8.420797
 20
51.256643
 30
0.0
 10
9.020817
 20
51.054093
 30
0.0
 10
9.656613
 20
50.840495
 30
0.0
  0
SPLINE
  5
107
100
AcDbEntity
  8
board_outline_and_fill_black
 62
7
100
AcDbSpline
 70
8
 71
3
 72
8
 73
4
 74
0
 40
0
 40
0
 40
0
 40
0
 40
1
 40
1
 40
1
 40
1
 10
9.656613
 20
50.840495
 30
0.0
 10
11.123782
 20
50.346485
 30
0.0
 10
12.786399
 20
49.786185
 30
0.0
 10
13.507028
 20
48.121332
 30
0.0
  0
SPLINE
  5
108
100
AcDbEntity
  8
board_outline_and_fill_black
 62
7
100
AcDbSpline
 70
8
 71
3
 72
8
 73
4
 74
0
 40
0
 40
0
 40
0
 40
0
 40
1
 40
1
 40
1
 40
1
 10
13.507028
 20
48.121332
 30
0.0
 10
14.497943
 20
45.832785
 30
0.0
 10
15.203052
 20
44.362985
 30
0.0
 10
17.126616
 20
43.041283
 30
0.0
  0
SPLINE
  5
109
100
AcDbEntity
  8
board_outline_and_fill_black
 62
7
100
AcDbSpline
 70
8
 71
3
 72
8
 73
4
 74
0
 40
0
 40
0
 40
0
 40
0
 40
1
 40
1
 40
1
 40
1
 10
17.126616
 20
43.041283
 30
0.0
 10
17.428993
 20
42.833867
 30
0.0
 10
17.851191
 20
42.673274
 30
0.0
 10
18.298378
 20
42.503080
 30
0.0
  0
SPLINE
  5
10a
100
AcDbEntity
  8
board_outline_and_fill_black
 62
7
100
AcDbSpline
 70
8
 71
3
 72
8
 73
4
 74
0
 40
0
 40
0
 40
0
 40
0
 40
1
 40
1
 40
1
 40
1
 10
18.298378
 20
42.503080
 30
0.0
 10
18.841054
 20
42.296979
 30
0.0
 10
19.456068
 20
42.063389
 30
0.0
 10
19.995718
 20
41.686568
 30
0.0
  0
SPLINE
  5
10b
100
AcDbEntity
  8
board_outline_and_fill_black
 62
7
100
AcDbSpline
 70
8
 71
3
 72
8
 73
4
 74
0
 40
0
 40
0
 40
0
 40
0
 40
1
 40
1
 40
1
 40
1
 10
19.995718
 20
41.686568
 30
0.0
 10
20.516297
 20
41.322637
 30
0.0
 10
20.910085
 20
40.852695
 30
0.0
 10
21.290325
 20
40.397222
 30
0.0
  0
SPLINE
  5
10c
100
AcDbEntity
  8
board_outline_and_fill_black
 62
7
100
AcDbSpline
 70
8
 71
3
 72
8
 73
4
 74
0
 40
0
 40
0
 40
0
 40
0
 40
1
 40
1
 40
1
 40
1
 10
21.290325
 20
40.397222
 30
0.0
 10
21.392618
 20
40.274917
 30
0.0
 10
21.551101
 20
40.105006
 30
0.0
 10
21.361303
 20
39.872802
 30
0.0
  0
SPLINE
  5
10d
100
AcDbEntity
  8
board_outline_and_fill_black
 62
7
100
AcDbSpline
 70
8
 71
3
 72
8
 73
4
 74
0
 40
0
 40
0
 40
0
 40
0
 40
1
 40
1
 40
1
 40
1
 10
21.361303
 20
39.872802
 30
0.0
 10
20.574004
 20
39.099582
 30
0.0
 10
20.056343
 20
38.190746
 30
0.0
 10
19.670920
 20
37.503656
 30
0.0
  0
SPLINE
  5
10e
100
AcDbEntity
  8
board_outline_and_fill_black
 62
7
100
AcDbSpline
 70
8
 71
3
 72
8
 73
4
 74
0
 40
0
 40
0
 40
0
 40
0
 40
1
 40
1
 40
1
 40
1
 10
19.670920
 20
37.503656
 30
0.0
 10
19.590742
 20
37.360293
 30
0.0
 10
19.514668
 20
37.225216
 30
0.0
 10
19.444433
 20
37.101187
 30
0.0
  0
SPLINE
  5
10f
100
AcDbEntity
  8
board_outline_and_fill_black
 62
7
100
AcDbSpline
 70
8
 71
3
 72
8
 73
4
 74
0
 40
0
 40
0
 40
0
 40
0
 40
1
 40
1
 40
1
 40
1
 10
19.444433
 20
37.101187
 30
0.0
 10
18.886185
 20
36.129607
 30
0.0
 10
18.337092
 20
34.989147
 30
0.0
 10
17.767322
 20
33.615098
 30
0.0
  0
SPLINE
  5
110
100
AcDbEntity
  8
board_outline_and_fill_black
 62
7
100
AcDbSpline
 70
8
 71
3
 72
8
 73
4
 74
0
 40
0
 40
0
 40
0
 40
0
 40
1
 40
1
 40
1
 40
1
 10
17.767322
 20
33.615098
 30
0.0
 10
16.835805
 20
31.370612
 30
0.0
 10
15.772656
 20
29.009068
 30
0.0
 10
13.938661
 20
26.966605
 30
0.0
  0
SPLINE
  5
111
100
AcDbEntity
  8
board_outline_and_fill_black
 62
7
100
AcDbSpline
 70
8
 71
3
 72
8
 73
4
 74
0
 40
0
 40
0
 40
0
 40
0
 40
1
 40
1
 40
1
 40
1
 10
13.938661
 20
26.966605
 30
0.0
 10
13.268038
 20
26.219539
 30
0.0
 10
12.502400
 20
25.581507
 30
0.0
 10
11.761700
 20
24.964126
 30
0.0
  0
SPLINE
  5
112
100
AcDbEntity
  8
board_outline_and_fill_black
 62
7
100
AcDbSpline
 70
8
 71
3
 72
8
 73
4
 74
0
 40
0
 40
0
 40
0
 40
0
 40
1
 40
1
 40
1
 40
1
 10
11.761700
 20
24.964126
 30
0.0
 10
11.378013
 20
24.644387
 30
0.0
 10
10.981069
 20
24.312942
 30
0.0
 10
10.611429
 20
23.977288
 30
0.0
  0
SPLINE
  5
113
100
AcDbEntity
  8
board_outline_and_fill_black
 62
7
100
AcDbSpline
 70
8
 71
3
 72
8
 73
4
 74
0
 40
0
 40
0
 40
0
 40
0
 40
1
 40
1
 40
1
 40
1
 10
10.611429
 20
23.977288
 30
0.0
 10
9.500458
 20
22.969801
 30
0.0
 10
9.247297
 20
22.392403
 30
0.0
 10
9.004237
 20
21.054129
 30
0.0
  0
SPLINE
  5
114
100
AcDbEntity
  8
board_outline_and_fill_black
 62
7
100
AcDbSpline
 70
8
 71
3
 72
8
 73
4
 74
0
 40
0
 40
0
 40
0
 40
0
 40
1
 40
1
 40
1
 40
1
 10
9.004237
 20
21.054129
 30
0.0
 10
8.619761
 20
18.935907
 30
0.0
 10
8.482291
 20
16.694183
 30
0.0
 10
8.607293
 20
14.571753
 30
0.0
  0
SPLINE
  5
115
100
AcDbEntity
  8
board_outline_and_fill_black
 62
7
100
AcDbSpline
 70
8
 71
3
 72
8
 73
4
 74
0
 40
0
 40
0
 40
0
 40
0
 40
1
 40
1
 40
1
 40
1
 10
8.607293
 20
14.571753
 30
0.0
 10
8.734189
 20
12.408681
 30
0.0
 10
11.479657
 20
6.967462
 30
0.0
 10
14.236330
 20
6.009692
 30
0.0
  0
SPLINE
  5
116
100
AcDbEntity
  8
board_outline_and_fill_black
 62
7
100
AcDbSpline
 70
8
 71
3
 72
8
 73
4
 74
0
 40
0
 40
0
 40
0
 40
0
 40
1
 40
1
 40
1
 40
1
 10
14.236330
 20
6.009692
 30
0.0
 10
14.313667
 20
5.983518
 30
0.0
 10
14.390373
 20
5.961422
 30
0.0
 10
14.938362
 20
5.928343
 30
0.0
  0
SPLINE
  5
117
100
AcDbEntity
  8
board_outline_and_fill_black
 62
7
100
AcDbSpline
 70
8
 71
3
 72
8
 73
4
 74
0
 40
0
 40
0
 40
0
 40
0
 40
1
 40
1
 40
1
 40
1
 10
14.938362
 20
5.928343
 30
0.0
 10
15.763975
 20
5.986938
 30
0.0
 10
16.112624
 20
6.153712
 30
0.0
 10
16.467112
 20
6.419657
 30
0.0
  0
SPLINE
  5
118
100
AcDbEntity
  8
board_outline_and_fill_black
 62
7
100
AcDbSpline
 70
8
 71
3
 72
8
 73
4
 74
0
 40
0
 40
0
 40
0
 40
0
 40
1
 40
1
 40
1
 40
1
 10
16.467112
 20
6.419657
 30
0.0
 10
17.612017
 20
7.277599
 30
0.0
 10
18.380969
 20
8.841835
 30
0.0
 10
19.123563
 20
10.354512
 30
0.0
  0
SPLINE
  5
119
100
AcDbEntity
  8
board_outline_and_fill_black
 62
7
100
AcDbSpline
 70
8
 71
3
 72
8
 73
4
 74
0
 40
0
 40
0
 40
0
 40
0
 40
1
 40
1
 40
1
 40
1
 10
19.123563
 20
10.354512
 30
0.0
 10
19.537711
 20
11.197197
 30
0.0
 10
19.928974
 20
11.993191
 30
0.0
 10
20.389524
 20
12.689751
 30
0.0
  0
SPLINE
  5
11a
100
AcDbEntity
  8
board_outline_and_fill_black
 62
7
100
AcDbSpline
 70
8
 71
3
 72
8
 73
4
 74
0
 40
0
 40
0
 40
0
 40
0
 40
1
 40
1
 40
1
 40
1
 10
20.389524
 20
12.689751
 30
0.0
 10
21.755175
 20
14.754947
 30
0.0
 10
23.820153
 20
17.318704
 30
0.0
 10
26.264608
 20
18.549849
 30
0.0
  0
SPLINE
  5
11b
100
AcDbEntity
  8
board_outline_and_fill_black
 62
7
100
AcDbSpline
 70
8
 71
3
 72
8
 73
4
 74
0
 40
0
 40
0
 40
0
 40
0
 40
1
 40
1
 40
1
 40
1
 10
26.264608
 20
18.549849
 30
0.0
 10
26.358508
 20
18.597142
 30
0.0
 10
28.398510
 20
19.967162
 30
0.0
 10
28.786122
 20
19.199029
 30
0.0
  0
SPLINE
  5
11c
100
AcDbEntity
  8
board_outline_and_fill_black
 62
7
100
AcDbSpline
 70
8
 71
3
 72
8
 73
4
 74
0
 40
0
 40
0
 40
0
 40
0
 40
1
 40
1
 40
1
 40
1
 10
28.786122
 20
19.199029
 30
0.0
 10
28.836024
 20
19.090729
 30
0.0
 10
28.911153
 20
18.874367
 30
0.0
 10
28.926976
 20
18.768267
 30
0.0
  0
SPLINE
  5
11d
100
AcDbEntity
  8
board_outline_and_fill_black
 62
7
100
AcDbSpline
 70
8
 71
3
 72
8
 73
4
 74
0
 40
0
 40
0
 40
0
 40
0
 40
1
 40
1
 40
1
 40
1
 10
28.926976
 20
18.768267
 30
0.0
 10
29.032299
 20
18.061980
 30
0.0
 10
29.403458
 20
17.725332
 30
0.0
 10
30.943516
 20
17.237910
 30
0.0
  0
LWPOLYLINE
  5
11e
100
AcDbEntity
  8
white
 62
7
100
AcDbPolyline
 90
5
 70
1
 10
-5.610014
 20
106.141460
 30
0.0
 10
108.609870
 20
106.141460
 30
0.0
 10
108.609870
 20
-7.405220
 30
0.0
 10
-6.507616
 20
-7.405220
 30
0.0
 10
-6.507616
 20
106.141460
 30
0.0
  0
SPLINE
  5
11f
100
AcDbEntity
  8
board_outline_and_fill_black
 62
7
100
AcDbSpline
 70
8
 71
3
 72
8
 73
4
 74
0
 40
0
 40
0
 40
0
 40
0
 40
1
 40
1
 40
1
 40
1
 10
31.113815
 20
17.184116
 30
0.0
 10
33.138154
 20
16.540561
 30
0.0
 10
33.846815
 20
15.349070
 30
0.0
 10
33.280360
 20
13.542169
 30
0.0
  0
SPLINE
  5
120
100
AcDbEntity
  8
board_outline_and_fill_black
 62
7
100
AcDbSpline
 70
8
 71
3
 72
8
 73
4
 74
0
 40
0
 40
0
 40
0
 40
0
 40
1
 40
1
 40
1
 40
1
 10
33.280360
 20
13.542169
 30
0.0
 10
33.029882
 20
12.742888
 30
0.0
 10
32.434386
 20
12.220599
 30
0.0
 10
31.956474
 20
11.800111
 30
0.0
  0
SPLINE
  5
121
100
AcDbEntity
  8
board_outline_and_fill_black
 62
7
100
AcDbSpline
 70
8
 71
3
 72
8
 73
4
 74
0
 40
0
 40
0
 40
0
 40
0
 40
1
 40
1
 40
1
 40
1
 10
31.956474
 20
11.800111
 30
0.0
 10
31.451258
 20
11.357133
 30
0.0
 10
31.163532
 20
11.085664
 30
0.0
 10
31.137017
 20
10.663203
 30
0.0
  0
SPLINE
  5
122
100
AcDbEntity
  8
board_outline_and_fill_black
 62
7
100
AcDbSpline
 70
8
 71
3
 72
8
 73
4
 74
0
 40
0
 40
0
 40
0
 40
0
 40
1
 40
1
 40
1
 40
1
 10
31.137017
 20
10.663203
 30
0.0
 10
31.089036
 20
9.923765
 30
0.0
 10
31.554637
 20
8.645467
 30
0.0
 10
32.025920
 20
8.219587
 30
0.0
  0
SPLINE
  5
123
100
AcDbEntity
  8
board_outline_and_fill_black
 62
7
100
AcDbSpline
 70
8
 71
3
 72
8
 73
4
 74
0
 40
0
 40
0
 40
0
 40
0
 40
1
 40
1
 40
1
 40
1
 10
32.025920
 20
8.219587
 30
0.0
 10
32.150764
 20
8.107264
 30
0.0
 10
32.411343
 20
8.045973
 30
0.0
 10
32.644459
 20
8.075566
 30
0.0
  0
SPLINE
  5
124
100
AcDbEntity
  8
board_outline_and_fill_black
 62
7
100
AcDbSpline
 70
8
 71
3
 72
8
 73
4
 74
0
 40
0
 40
0
 40
0
 40
0
 40
1
 40
1
 40
1
 40
1
 10
32.644459
 20
8.075566
 30
0.0
 10
32.769303
 20
8.092138
 30
0.0
 10
32.868579
 20
8.131464
 30
0.0
 10
32.909142
 20
8.183154
 30
0.0
  0
SPLINE
  5
125
100
AcDbEntity
  8
board_outline_and_fill_black
 62
7
100
AcDbSpline
 70
8
 71
3
 72
8
 73
4
 74
0
 40
0
 40
0
 40
0
 40
0
 40
1
 40
1
 40
1
 40
1
 10
32.909142
 20
8.183154
 30
0.0
 10
36.180006
 20
9.246680
 30
0.0
 10
37.033063
 20
10.018301
 30
0.0
 10
38.370089
 20
8.801851
 30
0.0
  0
SPLINE
  5
126
100
AcDbEntity
  8
board_outline_and_fill_black
 62
7
100
AcDbSpline
 70
8
 71
3
 72
8
 73
4
 74
0
 40
0
 40
0
 40
0
 40
0
 40
1
 40
1
 40
1
 40
1
 10
38.370089
 20
8.801851
 30
0.0
 10
39.022562
 20
8.174868
 30
0.0
 10
39.147406
 20
7.288648
 30
0.0
 10
38.740518
 20
6.169495
 30
0.0
  0
SPLINE
  5
127
100
AcDbEntity
  8
board_outline_and_fill_black
 62
7
100
AcDbSpline
 70
8
 71
3
 72
8
 73
4
 74
0
 40
0
 40
0
 40
0
 40
0
 40
1
 40
1
 40
1
 40
1
 10
38.740518
 20
6.169495
 30
0.0
 10
38.534549
 20
5.604461
 30
0.0
 10
38.199001
 20
5.194495
 30
0.0
 10
37.902910
 20
4.832668
 30
0.0
  0
SPLINE
  5
128
100
AcDbEntity
  8
board_outline_and_fill_black
 62
7
100
AcDbSpline
 70
8
 71
3
 72
8
 73
4
 74
0
 40
0
 40
0
 40
0
 40
0
 40
1
 40
1
 40
1
 40
1
 10
37.902910
 20
4.832668
 30
0.0
 10
37.505176
 20
4.347601
 30
0.0
 10
37.298418
 20
4.073238
 30
0.0
 10
37.323986
 20
3.603955
 30
0.0
  0
SPLINE
  5
129
100
AcDbEntity
  8
board_outline_and_fill_black
 62
7
100
AcDbSpline
 70
8
 71
3
 72
8
 73
4
 74
0
 40
0
 40
0
 40
0
 40
0
 40
1
 40
1
 40
1
 40
1
 10
37.323986
 20
3.603955
 30
0.0
 10
37.354606
 20
3.054835
 30
0.0
 10
37.498547
 20
2.652366
 30
0.0
 10
37.716038
 20
2.502164
 30
0.0
  0
SPLINE
  5
12a
100
AcDbEntity
  8
board_outline_and_fill_black
 62
7
100
AcDbSpline
 70
8
 71
3
 72
8
 73
4
 74
0
 40
0
 40
0
 40
0
 40
0
 40
1
 40
1
 40
1
 40
1
 10
37.716038
 20
2.502164
 30
0.0
 10
37.847511
 20
2.411937
 30
0.0
 10
38.068317
 20
2.384317
 30
0.0
 10
38.372615
 20
2.419434
 30
0.0
  0
LWPOLYLINE
  5
12b
100
AcDbEntity
  8
board_outline_and_fill_black
 62
7
100
AcDbPolyline
 90
2
 70
0
 10
30.943516
 20
17.237910
 30
0.0
 10
31.113815
 20
17.184116
 30
0.0
  0
SPLINE
  5
12c
100
AcDbEntity
  8
board_outline_and_fill_black
 62
7
100
AcDbSpline
 70
8
 71
3
 72
8
 73
4
 74
0
 40
0
 40
0
 40
0
 40
0
 40
1
 40
1
 40
1
 40
1
 10
38.404812
 20
2.423643
 30
0.0
 10
38.859523
 20
2.481514
 30
0.0
 10
39.261518
 20
2.628955
 30
0.0
 10
39.685767
 20
2.784681
 30
0.0
  0
SPLINE
  5
12d
100
AcDbEntity
  8
board_outline_and_fill_black
 62
7
100
AcDbSpline
 70
8
 71
3
 72
8
 73
4
 74
0
 40
0
 40
0
 40
0
 40
0
 40
1
 40
1
 40
1
 40
1
 10
39.685767
 20
2.784681
 30
0.0
 10
40.154683
 20
2.956322
 30
0.0
 10
40.685468
 20
3.151243
 30
0.0
 10
41.322158
 20
3.232000
 30
0.0
  0
SPLINE
  5
12e
100
AcDbEntity
  8
board_outline_and_fill_black
 62
7
100
AcDbSpline
 70
8
 71
3
 72
8
 73
4
 74
0
 40
0
 40
0
 40
0
 40
0
 40
1
 40
1
 40
1
 40
1
 10
41.322158
 20
3.232000
 30
0.0
 10
41.700163
 20
3.280138
 30
0.0
 10
42.074695
 20
3.285005
 30
0.0
 10
42.468325
 20
3.246336
 30
0.0
  0
SPLINE
  5
12f
100
AcDbEntity
  8
board_outline_and_fill_black
 62
7
100
AcDbSpline
 70
8
 71
3
 72
8
 73
4
 74
0
 40
0
 40
0
 40
0
 40
0
 40
1
 40
1
 40
1
 40
1
 10
42.468325
 20
3.246336
 30
0.0
 10
43.544101
 20
3.140327
 30
0.0
 10
44.261126
 20
2.932121
 30
0.0
 10
44.964736
 20
2.137574
 30
0.0
  0
SPLINE
  5
130
100
AcDbEntity
  8
board_outline_and_fill_black
 62
7
100
AcDbSpline
 70
8
 71
3
 72
8
 73
4
 74
0
 40
0
 40
0
 40
0
 40
0
 40
1
 40
1
 40
1
 40
1
 10
44.964736
 20
2.137574
 30
0.0
 10
45.279924
 20
1.782060
 30
0.0
 10
45.296339
 20
1.409185
 30
0.0
 10
45.306282
 20
1.186644
 30
0.0
  0
LWPOLYLINE
  5
131
100
AcDbEntity
  8
board_outline_and_fill_black
 62
7
100
AcDbPolyline
 90
2
 70
0
 10
38.372615
 20
2.419434
 30
0.0
 10
38.404812
 20
2.423643
 30
0.0
  0
SPLINE
  5
132
100
AcDbEntity
  8
board_outline_and_fill_black
 62
7
100
AcDbSpline
 70
8
 71
3
 72
8
 73
4
 74
0
 40
0
 40
0
 40
0
 40
0
 40
1
 40
1
 40
1
 40
1
 10
45.306282
 20
1.183224
 30
0.0
 10
45.669293
 20
1.248066
 30
0.0
 10
46.266367
 20
1.549786
 30
0.0
 10
46.707189
 20
1.772459
 30
0.0
  0
SPLINE
  5
133
100
AcDbEntity
  8
board_outline_and_fill_black
 62
7
100
AcDbSpline
 70
8
 71
3
 72
8
 73
4
 74
0
 40
0
 40
0
 40
0
 40
0
 40
1
 40
1
 40
1
 40
1
 10
46.707189
 20
1.772459
 30
0.0
 10
47.213195
 20
2.028014
 30
0.0
 10
47.649755
 20
2.249240
 30
0.0
 10
48.054117
 20
2.333285
 30
0.0
  0
SPLINE
  5
134
100
AcDbEntity
  8
board_outline_and_fill_black
 62
7
100
AcDbSpline
 70
8
 71
3
 72
8
 73
4
 74
0
 40
0
 40
0
 40
0
 40
0
 40
1
 40
1
 40
1
 40
1
 10
48.054117
 20
2.333285
 30
0.0
 10
48.267505
 20
2.377477
 30
0.0
 10
48.471738
 20
2.411937
 30
0.0
 10
48.662871
 20
2.436006
 30
0.0
  0
SPLINE
  5
135
100
AcDbEntity
  8
board_outline_and_fill_black
 62
7
100
AcDbSpline
 70
8
 71
3
 72
8
 73
4
 74
0
 40
0
 40
0
 40
0
 40
0
 40
1
 40
1
 40
1
 40
1
 10
48.662871
 20
2.436006
 30
0.0
 10
50.819314
 20
2.711027
 30
0.0
 10
51.671916
 20
1.682101
 30
0.0
 10
52.301188
 20
0.696710
 30
0.0
  0
SPLINE
  5
136
100
AcDbEntity
  8
board_outline_and_fill_black
 62
7
100
AcDbSpline
 70
8
 71
3
 72
8
 73
4
 74
0
 40
0
 40
0
 40
0
 40
0
 40
1
 40
1
 40
1
 40
1
 10
52.301188
 20
0.696710
 30
0.0
 10
52.788254
 20
-0.064692
 30
0.0
 10
53.155369
 20
-0.021289
 30
0.0
 10
53.376174
 20
0.006200
 30
0.0
  0
LWPOLYLINE
  5
137
100
AcDbEntity
  8
board_outline_and_fill_black
 62
7
100
AcDbPolyline
 90
2
 70
0
 10
45.306282
 20
1.186644
 30
0.0
 10
45.306282
 20
1.183224
 30
0.0
  0
SPLINE
  5
138
100
AcDbEntity
  8
board_outline_and_fill_black
 62
7
100
AcDbSpline
 70
8
 71
3
 72
8
 73
4
 74
0
 40
0
 40
0
 40
0
 40
0
 40
1
 40
1
 40
1
 40
1
 10
53.378699
 20
0.006989
 30
0.0
 10
53.874130
 20
0.070385
 30
0.0
 10
54.520606
 20
0.397621
 30
0.0
 10
55.205434
 20
0.744980
 30
0.0
  0
SPLINE
  5
139
100
AcDbEntity
  8
board_outline_and_fill_black
 62
7
100
AcDbSpline
 70
8
 71
3
 72
8
 73
4
 74
0
 40
0
 40
0
 40
0
 40
0
 40
1
 40
1
 40
1
 40
1
 10
55.205434
 20
0.744980
 30
0.0
 10
56.023944
 20
1.159812
 30
0.0
 10
56.952621
 20
1.629754
 30
0.0
 10
57.951533
 20
1.800606
 30
0.0
  0
SPLINE
  5
13a
100
AcDbEntity
  8
board_outline_and_fill_black
 62
7
100
AcDbSpline
 70
8
 71
3
 72
8
 73
4
 74
0
 40
0
 40
0
 40
0
 40
0
 40
1
 40
1
 40
1
 40
1
 10
57.951533
 20
1.800606
 30
0.0
 10
59.188611
 20
2.013546
 30
0.0
 10
60.357980
 20
1.770355
 30
0.0
 10
61.377567
 20
1.556757
 30
0.0
  0
SPLINE
  5
13b
100
AcDbEntity
  8
board_outline_and_fill_black
 62
7
100
AcDbSpline
 70
8
 71
3
 72
8
 73
4
 74
0
 40
0
 40
0
 40
0
 40
0
 40
1
 40
1
 40
1
 40
1
 10
61.377567
 20
1.556757
 30
0.0
 10
62.180453
 20
1.389193
 30
0.0
 10
62.938672
 20
1.230705
 30
0.0
 10
63.607717
 20
1.315539
 30
0.0
  0
SPLINE
  5
13c
100
AcDbEntity
  8
board_outline_and_fill_black
 62
7
100
AcDbSpline
 70
8
 71
3
 72
8
 73
4
 74
0
 40
0
 40
0
 40
0
 40
0
 40
1
 40
1
 40
1
 40
1
 10
63.607717
 20
1.315539
 30
0.0
 10
64.107094
 20
1.379592
 30
0.0
 10
64.542076
 20
1.575302
 30
0.0
 10
64.977058
 20
1.932263
 30
0.0
  0
SPLINE
  5
13d
100
AcDbEntity
  8
board_outline_and_fill_black
 62
7
100
AcDbSpline
 70
8
 71
3
 72
8
 73
4
 74
0
 40
0
 40
0
 40
0
 40
0
 40
1
 40
1
 40
1
 40
1
 10
64.977058
 20
1.932263
 30
0.0
 10
65.823031
 20
2.626192
 30
0.0
 10
65.975180
 20
3.125070
 30
0.0
 10
65.627163
 20
4.067846
 30
0.0
  0
SPLINE
  5
13e
100
AcDbEntity
  8
board_outline_and_fill_black
 62
7
100
AcDbSpline
 70
8
 71
3
 72
8
 73
4
 74
0
 40
0
 40
0
 40
0
 40
0
 40
1
 40
1
 40
1
 40
1
 10
65.627163
 20
4.067846
 30
0.0
 10
65.393100
 20
4.699695
 30
0.0
 10
65.127628
 20
5.416379
 30
0.0
 10
65.595597
 20
6.037970
 30
0.0
  0
SPLINE
  5
13f
100
AcDbEntity
  8
board_outline_and_fill_black
 62
7
100
AcDbSpline
 70
8
 71
3
 72
8
 73
4
 74
0
 40
0
 40
0
 40
0
 40
0
 40
1
 40
1
 40
1
 40
1
 10
65.595597
 20
6.037970
 30
0.0
 10
66.021425
 20
6.603004
 30
0.0
 10
66.839304
 20
6.766359
 30
0.0
 10
67.417439
 20
6.840013
 30
0.0
  0
SPLINE
  5
140
100
AcDbEntity
  8
board_outline_and_fill_black
 62
7
100
AcDbSpline
 70
8
 71
3
 72
8
 73
4
 74
0
 40
0
 40
0
 40
0
 40
0
 40
1
 40
1
 40
1
 40
1
 10
67.417439
 20
6.840013
 30
0.0
 10
67.514820
 20
6.852377
 30
0.0
 10
67.619146
 20
6.864214
 30
0.0
 10
67.729155
 20
6.873158
 30
0.0
  0
SPLINE
  5
141
100
AcDbEntity
  8
board_outline_and_fill_black
 62
7
100
AcDbSpline
 70
8
 71
3
 72
8
 73
4
 74
0
 40
0
 40
0
 40
0
 40
0
 40
1
 40
1
 40
1
 40
1
 10
67.729155
 20
6.873158
 30
0.0
 10
68.381627
 20
6.932344
 30
0.0
 10
69.052093
 20
6.973775
 30
0.0
 10
69.700462
 20
7.013759
 30
0.0
  0
SPLINE
  5
142
100
AcDbEntity
  8
board_outline_and_fill_black
 62
7
100
AcDbSpline
 70
8
 71
3
 72
8
 73
4
 74
0
 40
0
 40
0
 40
0
 40
0
 40
1
 40
1
 40
1
 40
1
 10
69.700462
 20
7.013759
 30
0.0
 10
70.670490
 20
7.072288
 30
0.0
 10
71.672716
 20
7.134236
 30
0.0
 10
72.636116
 20
7.256292
 30
0.0
  0
SPLINE
  5
143
100
AcDbEntity
  8
board_outline_and_fill_black
 62
7
100
AcDbSpline
 70
8
 71
3
 72
8
 73
4
 74
0
 40
0
 40
0
 40
0
 40
0
 40
1
 40
1
 40
1
 40
1
 10
72.636116
 20
7.256292
 30
0.0
 10
73.689479
 20
7.390580
 30
0.0
 10
74.583433
 20
7.585633
 30
0.0
 10
75.368168
 20
7.852367
 30
0.0
  0
SPLINE
  5
144
100
AcDbEntity
  8
board_outline_and_fill_black
 62
7
100
AcDbSpline
 70
8
 71
3
 72
8
 73
4
 74
0
 40
0
 40
0
 40
0
 40
0
 40
1
 40
1
 40
1
 40
1
 10
75.368168
 20
7.852367
 30
0.0
 10
76.318310
 20
8.175526
 30
0.0
 10
76.441576
 20
8.483559
 30
0.0
 10
76.773021
 20
9.305594
 30
0.0
  0
SPLINE
  5
145
100
AcDbEntity
  8
board_outline_and_fill_black
 62
7
100
AcDbSpline
 70
8
 71
3
 72
8
 73
4
 74
0
 40
0
 40
0
 40
0
 40
0
 40
1
 40
1
 40
1
 40
1
 10
76.773021
 20
9.305594
 30
0.0
 10
76.866614
 20
9.539316
 30
0.0
 10
76.973150
 20
9.803156
 30
0.0
 10
77.112199
 20
10.092644
 30
0.0
  0
SPLINE
  5
146
100
AcDbEntity
  8
board_outline_and_fill_black
 62
7
100
AcDbSpline
 70
8
 71
3
 72
8
 73
4
 74
0
 40
0
 40
0
 40
0
 40
0
 40
1
 40
1
 40
1
 40
1
 10
77.112199
 20
10.092644
 30
0.0
 10
77.270977
 20
10.421327
 30
0.0
 10
77.490046
 20
10.721074
 30
0.0
 10
77.701697
 20
11.010562
 30
0.0
  0
SPLINE
  5
147
100
AcDbEntity
  8
board_outline_and_fill_black
 62
7
100
AcDbSpline
 70
8
 71
3
 72
8
 73
4
 74
0
 40
0
 40
0
 40
0
 40
0
 40
1
 40
1
 40
1
 40
1
 10
77.701697
 20
11.010562
 30
0.0
 10
78.354170
 20
11.900860
 30
0.0
 10
78.341859
 20
12.057244
 30
0.0
 10
78.008521
 20
12.341077
 30
0.0
  0
SPLINE
  5
148
100
AcDbEntity
  8
board_outline_and_fill_black
 62
7
100
AcDbSpline
 70
8
 71
3
 72
8
 73
4
 74
0
 40
0
 40
0
 40
0
 40
0
 40
1
 40
1
 40
1
 40
1
 10
78.008521
 20
12.341077
 30
0.0
 10
77.756307
 20
12.554806
 30
0.0
 10
77.200584
 20
12.580979
 30
0.0
 10
76.611875
 20
12.608468
 30
0.0
  0
SPLINE
  5
149
100
AcDbEntity
  8
board_outline_and_fill_black
 62
7
100
AcDbSpline
 70
8
 71
3
 72
8
 73
4
 74
0
 40
0
 40
0
 40
0
 40
0
 40
1
 40
1
 40
1
 40
1
 10
76.611875
 20
12.608468
 30
0.0
 10
75.702296
 20
12.650557
 30
0.0
 10
74.456853
 20
12.709085
 30
0.0
 10
73.777233
 20
13.657254
 30
0.0
  0
SPLINE
  5
14a
100
AcDbEntity
  8
board_outline_and_fill_black
 62
7
100
AcDbSpline
 70
8
 71
3
 72
8
 73
4
 74
0
 40
0
 40
0
 40
0
 40
0
 40
1
 40
1
 40
1
 40
1
 10
73.777233
 20
13.657254
 30
0.0
 10
72.723712
 20
15.125871
 30
0.0
 10
74.016189
 20
16.060229
 30
0.0
 10
74.710803
 20
16.562526
 30
0.0
  0
SPLINE
  5
14b
100
AcDbEntity
  8
board_outline_and_fill_black
 62
7
100
AcDbSpline
 70
8
 71
3
 72
8
 73
4
 74
0
 40
0
 40
0
 40
0
 40
0
 40
1
 40
1
 40
1
 40
1
 10
74.710803
 20
16.562526
 30
0.0
 10
74.981167
 20
16.758236
 30
0.0
 10
75.123499
 20
16.932691
 30
0.0
 10
75.362486
 20
17.135189
 30
0.0
  0
SPLINE
  5
14c
100
AcDbEntity
  8
board_outline_and_fill_black
 62
7
100
AcDbSpline
 70
8
 71
3
 72
8
 73
4
 74
0
 40
0
 40
0
 40
0
 40
0
 40
1
 40
1
 40
1
 40
1
 10
75.362486
 20
17.135189
 30
0.0
 10
75.772608
 20
17.551569
 30
0.0
 10
76.068235
 20
17.623264
 30
0.0
 10
76.362929
 20
17.565625
 30
0.0
  0
SPLINE
  5
14d
100
AcDbEntity
  8
board_outline_and_fill_black
 62
7
100
AcDbSpline
 70
8
 71
3
 72
8
 73
4
 74
0
 40
0
 40
0
 40
0
 40
0
 40
1
 40
1
 40
1
 40
1
 10
76.362929
 20
17.565625
 30
0.0
 10
76.722356
 20
17.496682
 30
0.0
 10
76.969844
 20
17.436910
 30
0.0
 10
77.311305
 20
17.310236
 30
0.0
  0
SPLINE
  5
14e
100
AcDbEntity
  8
board_outline_and_fill_black
 62
7
100
AcDbSpline
 70
8
 71
3
 72
8
 73
4
 74
0
 40
0
 40
0
 40
0
 40
0
 40
1
 40
1
 40
1
 40
1
 10
77.311305
 20
17.310236
 30
0.0
 10
79.741743
 20
16.441904
 30
0.0
 10
81.452706
 20
15.608175
 30
0.0
 10
83.422435
 20
14.126538
 30
0.0
  0
SPLINE
  5
14f
100
AcDbEntity
  8
board_outline_and_fill_black
 62
7
100
AcDbSpline
 70
8
 71
3
 72
8
 73
4
 74
0
 40
0
 40
0
 40
0
 40
0
 40
1
 40
1
 40
1
 40
1
 10
83.422435
 20
14.126538
 30
0.0
 10
83.836741
 20
13.815085
 30
0.0
 10
84.220428
 20
13.476801
 30
0.0
 10
84.591646
 20
13.150091
 30
0.0
  0
SPLINE
  5
150
100
AcDbEntity
  8
board_outline_and_fill_black
 62
7
100
AcDbSpline
 70
8
 71
3
 72
8
 73
4
 74
0
 40
0
 40
0
 40
0
 40
0
 40
1
 40
1
 40
1
 40
1
 10
84.591646
 20
13.150091
 30
0.0
 10
86.188415
 20
11.743687
 30
0.0
 10
87.107938
 20
11.049757
 30
0.0
 10
88.966081
 20
11.890469
 30
0.0
  0
SPLINE
  5
151
100
AcDbEntity
  8
board_outline_and_fill_black
 62
7
100
AcDbSpline
 70
8
 71
3
 72
8
 73
4
 74
0
 40
0
 40
0
 40
0
 40
0
 40
1
 40
1
 40
1
 40
1
 10
88.966081
 20
11.890469
 30
0.0
 10
90.305591
 20
12.496934
 30
0.0
 10
90.915923
 20
13.828895
 30
0.0
 10
91.191338
 20
14.839144
 30
0.0
  0
SPLINE
  5
152
100
AcDbEntity
  8
board_outline_and_fill_black
 62
7
100
AcDbSpline
 70
8
 71
3
 72
8
 73
4
 74
0
 40
0
 40
0
 40
0
 40
0
 40
1
 40
1
 40
1
 40
1
 10
91.191338
 20
14.839144
 30
0.0
 10
92.035575
 20
17.932498
 30
0.0
 10
90.972269
 20
22.198666
 30
0.0
 10
89.457250
 20
23.947037
 30
0.0
  0
SPLINE
  5
153
100
AcDbEntity
  8
board_outline_and_fill_black
 62
7
100
AcDbSpline
 70
8
 71
3
 72
8
 73
4
 74
0
 40
0
 40
0
 40
0
 40
0
 40
1
 40
1
 40
1
 40
1
 10
89.457250
 20
23.947037
 30
0.0
 10
89.135591
 20
24.317677
 30
0.0
 10
88.778420
 20
24.646491
 30
0.0
 10
88.399626
 20
24.994377
 30
0.0
  0
SPLINE
  5
154
100
AcDbEntity
  8
board_outline_and_fill_black
 62
7
100
AcDbSpline
 70
8
 71
3
 72
8
 73
4
 74
0
 40
0
 40
0
 40
0
 40
0
 40
1
 40
1
 40
1
 40
1
 10
88.399626
 20
24.994377
 30
0.0
 10
87.811706
 20
25.534027
 30
0.0
 10
87.204688
 20
26.092879
 30
0.0
 10
86.726776
 20
26.825346
 30
0.0
  0
SPLINE
  5
155
100
AcDbEntity
  8
board_outline_and_fill_black
 62
7
100
AcDbSpline
 70
8
 71
3
 72
8
 73
4
 74
0
 40
0
 40
0
 40
0
 40
0
 40
1
 40
1
 40
1
 40
1
 10
86.726776
 20
26.825346
 30
0.0
 10
85.975980
 20
27.978169
 30
0.0
 10
85.167255
 20
29.050498
 30
0.0
 10
84.325385
 20
30.011030
 30
0.0
  0
SPLINE
  5
156
100
AcDbEntity
  8
board_outline_and_fill_black
 62
7
100
AcDbSpline
 70
8
 71
3
 72
8
 73
4
 74
0
 40
0
 40
0
 40
0
 40
0
 40
1
 40
1
 40
1
 40
1
 10
84.325385
 20
30.011030
 30
0.0
 10
83.752301
 20
30.664319
 30
0.0
 10
83.032119
 20
31.301035
 30
0.0
 10
82.269638
 20
31.974972
 30
0.0
  0
SPLINE
  5
157
100
AcDbEntity
  8
board_outline_and_fill_black
 62
7
100
AcDbSpline
 70
8
 71
3
 72
8
 73
4
 74
0
 40
0
 40
0
 40
0
 40
0
 40
1
 40
1
 40
1
 40
1
 10
82.269638
 20
31.974972
 30
0.0
 10
81.243622
 20
32.626430
 30
0.0
 10
80.387859
 20
32.907550
 30
0.0
 10
80.387859
 20
32.907550
 30
0.0
  0
LWPOLYLINE
  5
158
100
AcDbEntity
  8
board_outline_and_fill_black
 62
7
100
AcDbPolyline
 90
2
 70
0
 10
53.376174
 20
0.006200
 30
0.0
 10
53.378699
 20
0.006989
 30
0.0
  0
SPLINE
  5
159
100
AcDbEntity
  8
board_outline_and_fill_black
 62
7
100
AcDbSpline
 70
8
 71
3
 72
8
 73
4
 74
0
 40
0
 40
0
 40
0
 40
0
 40
1
 40
1
 40
1
 40
1
 10
80.263721
 20
32.947767
 30
0.0
 10
79.950977
 20
33.067240
 30
0.0
 10
79.847580
 20
33.131365
 30
0.0
 10
79.605295
 20
33.197504
 30
0.0
  0
SPLINE
  5
15a
100
AcDbEntity
  8
board_outline_and_fill_black
 62
7
100
AcDbSpline
 70
8
 71
3
 72
8
 73
4
 74
0
 40
0
 40
0
 40
0
 40
0
 40
1
 40
1
 40
1
 40
1
 10
79.605295
 20
33.197504
 30
0.0
 10
79.099290
 20
33.364936
 30
0.0
 10
78.405465
 20
33.593659
 30
0.0
 10
78.135101
 20
34.200782
 30
0.0
  0
SPLINE
  5
15b
100
AcDbEntity
  8
board_outline_and_fill_black
 62
7
100
AcDbSpline
 70
8
 71
3
 72
8
 73
4
 74
0
 40
0
 40
0
 40
0
 40
0
 40
1
 40
1
 40
1
 40
1
 10
78.135101
 20
34.200782
 30
0.0
 10
77.916821
 20
34.689400
 30
0.0
 10
78.187185
 20
35.177229
 30
0.0
 10
78.425352
 20
35.608633
 30
0.0
  0
SPLINE
  5
15c
100
AcDbEntity
  8
board_outline_and_fill_black
 62
7
100
AcDbSpline
 70
8
 71
3
 72
8
 73
4
 74
0
 40
0
 40
0
 40
0
 40
0
 40
1
 40
1
 40
1
 40
1
 10
78.425352
 20
35.608633
 30
0.0
 10
78.490694
 20
35.726480
 30
0.0
 10
78.589023
 20
35.904303
 30
0.0
 10
78.605595
 20
35.968356
 30
0.0
  0
SPLINE
  5
15d
100
AcDbEntity
  8
board_outline_and_fill_black
 62
7
100
AcDbSpline
 70
8
 71
3
 72
8
 73
4
 74
0
 40
0
 40
0
 40
0
 40
0
 40
1
 40
1
 40
1
 40
1
 10
78.605595
 20
35.968356
 30
0.0
 10
78.739593
 20
36.981367
 30
0.0
 10
76.927897
 20
35.979540
 30
0.0
 10
75.556032
 20
36.809204
 30
0.0
  0
SPLINE
  5
15e
100
AcDbEntity
  8
board_outline_and_fill_black
 62
7
100
AcDbSpline
 70
8
 71
3
 72
8
 73
4
 74
0
 40
0
 40
0
 40
0
 40
0
 40
1
 40
1
 40
1
 40
1
 10
75.556032
 20
36.809204
 30
0.0
 10
75.084771
 20
37.045111
 30
0.0
 10
74.365054
 20
37.648095
 30
0.0
 10
74.487711
 20
37.987315
 30
0.0
  0
SPLINE
  5
15f
100
AcDbEntity
  8
board_outline_and_fill_black
 62
7
100
AcDbSpline
 70
8
 71
3
 72
8
 73
4
 74
0
 40
0
 40
0
 40
0
 40
0
 40
1
 40
1
 40
1
 40
1
 10
74.487711
 20
37.987315
 30
0.0
 10
74.502436
 20
38.104957
 30
0.0
 10
75.016349
 20
38.553231
 30
0.0
 10
75.174180
 20
38.703434
 30
0.0
  0
SPLINE
  5
160
100
AcDbEntity
  8
board_outline_and_fill_black
 62
7
100
AcDbSpline
 70
8
 71
3
 72
8
 73
4
 74
0
 40
0
 40
0
 40
0
 40
0
 40
1
 40
1
 40
1
 40
1
 10
75.174180
 20
38.703434
 30
0.0
 10
75.397379
 20
38.915585
 30
0.0
 10
75.672658
 20
39.116161
 30
0.0
 10
75.883494
 20
39.260840
 30
0.0
  0
SPLINE
  5
161
100
AcDbEntity
  8
board_outline_and_fill_black
 62
7
100
AcDbSpline
 70
8
 71
3
 72
8
 73
4
 74
0
 40
0
 40
0
 40
0
 40
0
 40
1
 40
1
 40
1
 40
1
 10
75.883494
 20
39.260840
 30
0.0
 10
76.916365
 20
39.970552
 30
0.0
 10
77.853618
 20
40.239391
 30
0.0
 10
78.803233
 20
40.473638
 30
0.0
  0
SPLINE
  5
162
100
AcDbEntity
  8
board_outline_and_fill_black
 62
7
100
AcDbSpline
 70
8
 71
3
 72
8
 73
4
 74
0
 40
0
 40
0
 40
0
 40
0
 40
1
 40
1
 40
1
 40
1
 10
78.803233
 20
40.473638
 30
0.0
 10
79.838867
 20
40.729324
 30
0.0
 10
80.084951
 20
40.790615
 30
0.0
 10
80.499783
 20
41.614098
 30
0.0
  0
SPLINE
  5
163
100
AcDbEntity
  8
board_outline_and_fill_black
 62
7
100
AcDbSpline
 70
8
 71
3
 72
8
 73
4
 74
0
 40
0
 40
0
 40
0
 40
0
 40
1
 40
1
 40
1
 40
1
 10
80.499783
 20
41.614098
 30
0.0
 10
80.692074
 20
41.996574
 30
0.0
 10
80.692732
 20
42.241212
 30
0.0
 10
80.694836
 20
42.611194
 30
0.0
  0
SPLINE
  5
164
100
AcDbEntity
  8
board_outline_and_fill_black
 62
7
100
AcDbSpline
 70
8
 71
3
 72
8
 73
4
 74
0
 40
0
 40
0
 40
0
 40
0
 40
1
 40
1
 40
1
 40
1
 10
80.694836
 20
42.611194
 30
0.0
 10
80.695494
 20
42.885557
 30
0.0
 10
80.696809
 20
43.226603
 30
0.0
 10
80.785063
 20
43.640120
 30
0.0
  0
SPLINE
  5
165
100
AcDbEntity
  8
board_outline_and_fill_black
 62
7
100
AcDbSpline
 70
8
 71
3
 72
8
 73
4
 74
0
 40
0
 40
0
 40
0
 40
0
 40
1
 40
1
 40
1
 40
1
 10
80.785063
 20
43.640120
 30
0.0
 10
81.243298
 20
45.797668
 30
0.0
 10
83.445565
 20
46.413734
 30
0.0
 10
85.215243
 20
46.909191
 30
0.0
  0
SPLINE
  5
166
100
AcDbEntity
  8
board_outline_and_fill_black
 62
7
100
AcDbSpline
 70
8
 71
3
 72
8
 73
4
 74
0
 40
0
 40
0
 40
0
 40
0
 40
1
 40
1
 40
1
 40
1
 10
85.215243
 20
46.909191
 30
0.0
 10
85.905753
 20
47.102797
 30
0.0
 10
86.558121
 20
47.285487
 30
0.0
 10
87.032929
 20
47.527362
 30
0.0
  0
LWPOLYLINE
  5
167
100
AcDbEntity
  8
board_outline_and_fill_black
 62
7
100
AcDbPolyline
 90
2
 70
0
 10
80.387859
 20
32.907550
 30
0.0
 10
80.263721
 20
32.947767
 30
0.0
  0
SPLINE
  5
168
100
AcDbEntity
  8
board_outline_and_fill_black
 62
7
100
AcDbSpline
 70
8
 71
3
 72
8
 73
4
 74
0
 40
0
 40
0
 40
0
 40
0
 40
1
 40
1
 40
1
 40
1
 10
87.194705
 20
47.609960
 30
0.0
 10
89.301747
 20
48.685709
 30
0.0
 10
91.479813
 20
49.797891
 30
0.0
 10
93.289607
 20
51.105783
 30
0.0
  0
SPLINE
  5
169
100
AcDbEntity
  8
board_outline_and_fill_black
 62
7
100
AcDbSpline
 70
8
 71
3
 72
8
 73
4
 74
0
 40
0
 40
0
 40
0
 40
0
 40
1
 40
1
 40
1
 40
1
 10
93.289607
 20
51.105783
 30
0.0
 10
94.749543
 20
52.160882
 30
0.0
 10
95.831999
 20
53.942135
 30
0.0
 10
96.880259
 20
55.664201
 30
0.0
  0
SPLINE
  5
16a
100
AcDbEntity
  8
board_outline_and_fill_black
 62
7
100
AcDbSpline
 70
8
 71
3
 72
8
 73
4
 74
0
 40
0
 40
0
 40
0
 40
0
 40
1
 40
1
 40
1
 40
1
 10
96.880259
 20
55.664201
 30
0.0
 10
97.074917
 20
55.985387
 30
0.0
 10
97.266945
 20
56.301574
 30
0.0
 10
97.458972
 20
56.607635
 30
0.0
  0
SPLINE
  5
16b
100
AcDbEntity
  8
board_outline_and_fill_black
 62
7
100
AcDbSpline
 70
8
 71
3
 72
8
 73
4
 74
0
 40
0
 40
0
 40
0
 40
0
 40
1
 40
1
 40
1
 40
1
 10
97.458972
 20
56.607635
 30
0.0
 10
97.735176
 20
57.049956
 30
0.0
 10
97.745698
 20
57.264343
 30
0.0
 10
97.724654
 20
57.309851
 30
0.0
  0
SPLINE
  5
16c
100
AcDbEntity
  8
board_outline_and_fill_black
 62
7
100
AcDbSpline
 70
8
 71
3
 72
8
 73
4
 74
0
 40
0
 40
0
 40
0
 40
0
 40
1
 40
1
 40
1
 40
1
 10
97.724654
 20
57.309851
 30
0.0
 10
97.615488
 20
57.562643
 30
0.0
 10
96.548814
 20
57.771506
 30
0.0
 10
95.975362
 20
57.883829
 30
0.0
  0
SPLINE
  5
16d
100
AcDbEntity
  8
board_outline_and_fill_black
 62
7
100
AcDbSpline
 70
8
 71
3
 72
8
 73
4
 74
0
 40
0
 40
0
 40
0
 40
0
 40
1
 40
1
 40
1
 40
1
 10
95.975362
 20
57.883829
 30
0.0
 10
95.208567
 20
58.034031
 30
0.0
 10
94.415467
 20
58.189100
 30
0.0
 10
93.834124
 20
58.543299
 30
0.0
  0
SPLINE
  5
16e
100
AcDbEntity
  8
board_outline_and_fill_black
 62
7
100
AcDbSpline
 70
8
 71
3
 72
8
 73
4
 74
0
 40
0
 40
0
 40
0
 40
0
 40
1
 40
1
 40
1
 40
1
 10
93.834124
 20
58.543299
 30
0.0
 10
93.714435
 20
58.616296
 30
0.0
 10
93.593432
 20
58.686004
 30
0.0
 10
93.475058
 20
58.754792
 30
0.0
  0
SPLINE
  5
16f
100
AcDbEntity
  8
board_outline_and_fill_black
 62
7
100
AcDbSpline
 70
8
 71
3
 72
8
 73
4
 74
0
 40
0
 40
0
 40
0
 40
0
 40
1
 40
1
 40
1
 40
1
 10
93.475058
 20
58.754792
 30
0.0
 10
92.626718
 20
59.246830
 30
0.0
 10
91.497096
 20
59.858819
 30
0.0
 10
91.355048
 20
61.717935
 30
0.0
  0
SPLINE
  5
170
100
AcDbEntity
  8
board_outline_and_fill_black
 62
7
100
AcDbSpline
 70
8
 71
3
 72
8
 73
4
 74
0
 40
0
 40
0
 40
0
 40
0
 40
1
 40
1
 40
1
 40
1
 10
91.355048
 20
61.717935
 30
0.0
 10
91.506303
 20
63.121709
 30
0.0
 10
92.274229
 20
63.562320
 30
0.0
 10
92.797701
 20
63.896264
 30
0.0
  0
SPLINE
  5
171
100
AcDbEntity
  8
board_outline_and_fill_black
 62
7
100
AcDbSpline
 70
8
 71
3
 72
8
 73
4
 74
0
 40
0
 40
0
 40
0
 40
0
 40
1
 40
1
 40
1
 40
1
 10
92.797701
 20
63.896264
 30
0.0
 10
93.121254
 20
64.103417
 30
0.0
 10
93.427709
 20
64.298864
 30
0.0
 10
93.661825
 20
64.627152
 30
0.0
  0
SPLINE
  5
172
100
AcDbEntity
  8
board_outline_and_fill_black
 62
7
100
AcDbSpline
 70
8
 71
3
 72
8
 73
4
 74
0
 40
0
 40
0
 40
0
 40
0
 40
1
 40
1
 40
1
 40
1
 10
93.661825
 20
64.627152
 30
0.0
 10
93.872266
 20
64.920981
 30
0.0
 10
93.872266
 20
64.920981
 30
0.0
 10
93.563181
 20
65.294514
 30
0.0
  0
SPLINE
  5
173
100
AcDbEntity
  8
board_outline_and_fill_black
 62
7
100
AcDbSpline
 70
8
 71
3
 72
8
 73
4
 74
0
 40
0
 40
0
 40
0
 40
0
 40
1
 40
1
 40
1
 40
1
 10
93.563181
 20
65.294514
 30
0.0
 10
93.304075
 20
65.608466
 30
0.0
 10
92.948956
 20
66.038029
 30
0.0
 10
92.893715
 20
66.685267
 30
0.0
  0
SPLINE
  5
174
100
AcDbEntity
  8
board_outline_and_fill_black
 62
7
100
AcDbSpline
 70
8
 71
3
 72
8
 73
4
 74
0
 40
0
 40
0
 40
0
 40
0
 40
1
 40
1
 40
1
 40
1
 10
92.893715
 20
66.685267
 30
0.0
 10
92.821376
 20
67.535186
 30
0.0
 10
93.393512
 20
68.174401
 30
0.0
 10
93.897256
 20
68.738646
 30
0.0
  0
SPLINE
  5
175
100
AcDbEntity
  8
board_outline_and_fill_black
 62
7
100
AcDbSpline
 70
8
 71
3
 72
8
 73
4
 74
0
 40
0
 40
0
 40
0
 40
0
 40
1
 40
1
 40
1
 40
1
 10
93.897256
 20
68.738646
 30
0.0
 10
94.215548
 20
69.095081
 30
0.0
 10
94.544363
 20
69.463353
 30
0.0
 10
94.595658
 20
69.760601
 30
0.0
  0
SPLINE
  5
176
100
AcDbEntity
  8
board_outline_and_fill_black
 62
7
100
AcDbSpline
 70
8
 71
3
 72
8
 73
4
 74
0
 40
0
 40
0
 40
0
 40
0
 40
1
 40
1
 40
1
 40
1
 10
94.595658
 20
69.760601
 30
0.0
 10
94.679834
 20
70.252507
 30
0.0
 10
94.581190
 20
70.665498
 30
0.0
 10
94.297094
 20
71.024563
 30
0.0
  0
SPLINE
  5
177
100
AcDbEntity
  8
board_outline_and_fill_black
 62
7
100
AcDbSpline
 70
8
 71
3
 72
8
 73
4
 74
0
 40
0
 40
0
 40
0
 40
0
 40
1
 40
1
 40
1
 40
1
 10
94.297094
 20
71.024563
 30
0.0
 10
93.622367
 20
71.871589
 30
0.0
 10
92.005916
 20
72.329298
 30
0.0
 10
90.702496
 20
72.404268
 30
0.0
  0
SPLINE
  5
178
100
AcDbEntity
  8
board_outline_and_fill_black
 62
7
100
AcDbSpline
 70
8
 71
3
 72
8
 73
4
 74
0
 40
0
 40
0
 40
0
 40
0
 40
1
 40
1
 40
1
 40
1
 10
90.702496
 20
72.404268
 30
0.0
 10
87.726069
 20
72.579197
 30
0.0
 10
85.905753
 20
73.476203
 30
0.0
 10
84.212623
 20
75.605604
 30
0.0
  0
SPLINE
  5
179
100
AcDbEntity
  8
board_outline_and_fill_black
 62
7
100
AcDbSpline
 70
8
 71
3
 72
8
 73
4
 74
0
 40
0
 40
0
 40
0
 40
0
 40
1
 40
1
 40
1
 40
1
 10
84.212623
 20
75.605604
 30
0.0
 10
83.998236
 20
75.875232
 30
0.0
 10
83.788189
 20
76.148805
 30
0.0
 10
83.578669
 20
76.422379
 30
0.0
  0
SPLINE
  5
17a
100
AcDbEntity
  8
board_outline_and_fill_black
 62
7
100
AcDbSpline
 70
8
 71
3
 72
8
 73
4
 74
0
 40
0
 40
0
 40
0
 40
0
 40
1
 40
1
 40
1
 40
1
 10
83.578669
 20
76.422379
 30
0.0
 10
82.429923
 20
77.923087
 30
0.0
 10
81.344573
 20
79.340934
 30
0.0
 10
79.526099
 20
79.944637
 30
0.0
  0
SPLINE
  5
17b
100
AcDbEntity
  8
board_outline_and_fill_black
 62
7
100
AcDbSpline
 70
8
 71
3
 72
8
 73
4
 74
0
 40
0
 40
0
 40
0
 40
0
 40
1
 40
1
 40
1
 40
1
 10
79.526099
 20
79.944637
 30
0.0
 10
78.617782
 20
80.245831
 30
0.0
 10
77.992772
 20
79.885451
 30
0.0
 10
77.049469
 20
79.271226
 30
0.0
  0
SPLINE
  5
17c
100
AcDbEntity
  8
board_outline_and_fill_black
 62
7
100
AcDbSpline
 70
8
 71
3
 72
8
 73
4
 74
0
 40
0
 40
0
 40
0
 40
0
 40
1
 40
1
 40
1
 40
1
 10
77.049469
 20
79.271226
 30
0.0
 10
75.996474
 20
78.584661
 30
0.0
 10
74.686478
 20
77.732375
 30
0.0
 10
72.864453
 20
78.805625
 30
0.0
  0
SPLINE
  5
17d
100
AcDbEntity
  8
board_outline_and_fill_black
 62
7
100
AcDbSpline
 70
8
 71
3
 72
8
 73
4
 74
0
 40
0
 40
0
 40
0
 40
0
 40
1
 40
1
 40
1
 40
1
 10
72.864453
 20
78.805625
 30
0.0
 10
72.204325
 20
79.194941
 30
0.0
 10
71.575237
 20
79.660542
 30
0.0
 10
70.966668
 20
80.111675
 30
0.0
  0
SPLINE
  5
17e
100
AcDbEntity
  8
board_outline_and_fill_black
 62
7
100
AcDbSpline
 70
8
 71
3
 72
8
 73
4
 74
0
 40
0
 40
0
 40
0
 40
0
 40
1
 40
1
 40
1
 40
1
 10
70.966668
 20
80.111675
 30
0.0
 10
69.688501
 20
81.059975
 30
0.0
 10
68.480437
 20
81.955665
 30
0.0
 10
67.020239
 20
82.175313
 30
0.0
  0
SPLINE
  5
17f
100
AcDbEntity
  8
board_outline_and_fill_black
 62
7
100
AcDbSpline
 70
8
 71
3
 72
8
 73
4
 74
0
 40
0
 40
0
 40
0
 40
0
 40
1
 40
1
 40
1
 40
1
 10
67.020239
 20
82.175313
 30
0.0
 10
65.474549
 20
82.408114
 30
0.0
 10
62.601106
 20
81.508478
 30
0.0
 10
61.626632
 20
80.487838
 30
0.0
  0
SPLINE
  5
180
100
AcDbEntity
  8
board_outline_and_fill_black
 62
7
100
AcDbSpline
 70
8
 71
3
 72
8
 73
4
 74
0
 40
0
 40
0
 40
0
 40
0
 40
1
 40
1
 40
1
 40
1
 10
61.626632
 20
80.487838
 30
0.0
 10
60.628089
 20
79.442209
 30
0.0
 10
60.129212
 20
77.927033
 30
0.0
 10
59.600742
 20
76.322419
 30
0.0
  0
SPLINE
  5
181
100
AcDbEntity
  8
board_outline_and_fill_black
 62
7
100
AcDbSpline
 70
8
 71
3
 72
8
 73
4
 74
0
 40
0
 40
0
 40
0
 40
0
 40
1
 40
1
 40
1
 40
1
 10
59.600742
 20
76.322419
 30
0.0
 10
59.207217
 20
75.128166
 30
0.0
 10
58.706469
 20
73.567047
 30
0.0
 10
58.216896
 20
72.931555
 30
0.0
  0
LWPOLYLINE
  5
182
100
AcDbEntity
  8
board_outline_and_fill_black
 62
7
100
AcDbPolyline
 90
2
 70
0
 10
87.032929
 20
47.527362
 30
0.0
 10
87.194705
 20
47.609960
 30
0.0
  0
SPLINE
  5
183
100
AcDbEntity
  8
board_outline_and_fill_black
 62
7
100
AcDbSpline
 70
8
 71
3
 72
8
 73
4
 74
0
 40
0
 40
0
 40
0
 40
0
 40
1
 40
1
 40
1
 40
1
 10
58.216896
 20
72.931555
 30
0.0
 10
58.209268
 20
72.919717
 30
0.0
 10
58.203086
 20
72.906565
 30
0.0
 10
58.196247
 20
72.894727
 30
0.0
  0
SPLINE
  5
184
100
AcDbEntity
  8
board_outline_and_fill_black
 62
7
100
AcDbSpline
 70
8
 71
3
 72
8
 73
4
 74
0
 40
0
 40
0
 40
0
 40
0
 40
1
 40
1
 40
1
 40
1
 10
58.196247
 20
72.894727
 30
0.0
 10
58.032568
 20
72.660559
 30
0.0
 10
57.949686
 20
72.565926
 30
0.0
 10
57.775320
 20
72.543633
 30
0.0
  0
SPLINE
  5
185
100
AcDbEntity
  8
board_outline_and_fill_black
 62
7
100
AcDbSpline
 70
8
 71
3
 72
8
 73
4
 74
0
 40
0
 40
0
 40
0
 40
0
 40
1
 40
1
 40
1
 40
1
 10
57.775320
 20
72.543633
 30
0.0
 10
57.635212
 20
72.525719
 30
0.0
 10
57.471301
 20
72.567018
 30
0.0
 10
57.377757
 20
72.800884
 30
0.0
  0
SPLINE
  5
186
100
AcDbEntity
  8
board_outline_and_fill_black
 62
7
100
AcDbSpline
 70
8
 71
3
 72
8
 73
4
 74
0
 40
0
 40
0
 40
0
 40
0
 40
1
 40
1
 40
1
 40
1
 10
57.377757
 20
72.800884
 30
0.0
 10
57.221228
 20
73.077443
 30
0.0
 10
57.314846
 20
74.905098
 30
0.0
 10
57.195903
 20
75.651033
 30
0.0
  0
SPLINE
  5
187
100
AcDbEntity
  8
board_outline_and_fill_black
 62
7
100
AcDbSpline
 70
8
 71
3
 72
8
 73
4
 74
0
 40
0
 40
0
 40
0
 40
0
 40
1
 40
1
 40
1
 40
1
 10
57.195903
 20
75.651033
 30
0.0
 10
56.880790
 20
77.802083
 30
0.0
 10
56.354292
 20
79.331727
 30
0.0
 10
55.745197
 20
81.103379
 30
0.0
  0
SPLINE
  5
188
100
AcDbEntity
  8
board_outline_and_fill_black
 62
7
100
AcDbSpline
 70
8
 71
3
 72
8
 73
4
 74
0
 40
0
 40
0
 40
0
 40
0
 40
1
 40
1
 40
1
 40
1
 10
55.745197
 20
81.103379
 30
0.0
 10
55.674173
 20
81.308559
 30
0.0
 10
55.603281
 20
81.515054
 30
0.0
 10
55.531599
 20
81.726811
 30
0.0
  0
SPLINE
  5
189
100
AcDbEntity
  8
board_outline_and_fill_black
 62
7
100
AcDbSpline
 70
8
 71
3
 72
8
 73
4
 74
0
 40
0
 40
0
 40
0
 40
0
 40
1
 40
1
 40
1
 40
1
 10
55.531599
 20
81.726811
 30
0.0
 10
54.800448
 20
83.869365
 30
0.0
 10
54.300781
 20
85.963254
 30
0.0
 10
53.910808
 20
88.517483
 30
0.0
  0
SPLINE
  5
18a
100
AcDbEntity
  8
board_outline_and_fill_black
 62
7
100
AcDbSpline
 70
8
 71
3
 72
8
 73
4
 74
0
 40
0
 40
0
 40
0
 40
0
 40
1
 40
1
 40
1
 40
1
 10
53.910808
 20
88.517483
 30
0.0
 10
53.730880
 20
89.694639
 30
0.0
 10
53.580020
 20
90.882316
 30
0.0
 10
53.433895
 20
92.031851
 30
0.0
  0
SPLINE
  5
18b
100
AcDbEntity
  8
board_outline_and_fill_black
 62
7
100
AcDbSpline
 70
8
 71
3
 72
8
 73
4
 74
0
 40
0
 40
0
 40
0
 40
0
 40
1
 40
1
 40
1
 40
1
 10
53.433895
 20
92.031851
 30
0.0
 10
53.290532
 20
93.160341
 30
0.0
 10
53.143092
 20
94.326974
 30
0.0
 10
52.969478
 20
95.463357
 30
0.0
  0
SPLINE
  5
18c
100
AcDbEntity
  8
board_outline_and_fill_black
 62
7
100
AcDbSpline
 70
8
 71
3
 72
8
 73
4
 74
0
 40
0
 40
0
 40
0
 40
0
 40
1
 40
1
 40
1
 40
1
 10
52.969478
 20
95.463357
 30
0.0
 10
52.514004
 20
98.442414
 30
0.0
 10
51.897938
 20
100.045713
 30
0.0
 10
49.948464
 20
99.993102
 30
0.0
  0
SPLINE
  5
18d
100
AcDbEntity
  8
board_outline_and_fill_black
 62
7
100
AcDbSpline
 70
8
 71
3
 72
8
 73
4
 74
0
 40
0
 40
0
 40
0
 40
0
 40
1
 40
1
 40
1
 40
1
 10
49.948464
 20
99.993102
 30
0.0
 10
48.335301
 20
99.949699
 30
0.0
 10
47.148018
 20
98.617343
 30
0.0
 10
45.997826
 20
97.328391
 30
0.0
  0
SPLINE
  5
18e
100
AcDbEntity
  8
board_outline_and_fill_black
 62
7
100
AcDbSpline
 70
8
 71
3
 72
8
 73
4
 74
0
 40
0
 40
0
 40
0
 40
0
 40
1
 40
1
 40
1
 40
1
 10
45.997826
 20
97.328391
 30
0.0
 10
45.720175
 20
97.016675
 30
0.0
 10
45.458965
 20
96.723373
 30
0.0
 10
45.188154
 20
96.444538
 30
0.0
  0
SPLINE
  5
18f
100
AcDbEntity
  8
board_outline_and_fill_black
 62
7
100
AcDbSpline
 70
8
 71
3
 72
8
 73
4
 74
0
 40
0
 40
0
 40
0
 40
0
 40
1
 40
1
 40
1
 40
1
 10
45.188154
 20
96.444538
 30
0.0
 10
43.231840
 20
94.424303
 30
0.0
 10
41.766775
 20
92.801276
 30
0.0
 10
40.436787
 20
91.182195
 30
0.0
  0
SPLINE
  5
190
100
AcDbEntity
  8
board_outline_and_fill_black
 62
7
100
AcDbSpline
 70
8
 71
3
 72
8
 73
4
 74
0
 40
0
 40
0
 40
0
 40
0
 40
1
 40
1
 40
1
 40
1
 10
40.436787
 20
91.182195
 30
0.0
 10
39.605808
 20
90.170762
 30
0.0
 10
38.896621
 20
88.985715
 30
0.0
 10
38.539660
 20
88.013740
 30
0.0
  0
SPLINE
  5
191
100
AcDbEntity
  8
board_outline_and_fill_black
 62
7
100
AcDbSpline
 70
8
 71
3
 72
8
 73
4
 74
0
 40
0
 40
0
 40
0
 40
0
 40
1
 40
1
 40
1
 40
1
 10
38.539660
 20
88.013740
 30
0.0
 10
38.370123
 20
87.552085
 30
0.0
 10
38.341188
 20
87.090429
 30
0.0
 10
38.310279
 20
86.601154
 30
0.0
  0
SPLINE
  5
192
100
AcDbEntity
  8
board_outline_and_fill_black
 62
7
100
AcDbSpline
 70
8
 71
3
 72
8
 73
4
 74
0
 40
0
 40
0
 40
0
 40
0
 40
1
 40
1
 40
1
 40
1
 10
38.310279
 20
86.601154
 30
0.0
 10
38.273058
 20
86.013234
 30
0.0
 10
38.230969
 20
85.345083
 30
0.0
 10
37.929118
 20
84.646682
 30
0.0
  0
SPLINE
  5
193
100
AcDbEntity
  8
board_outline_and_fill_black
 62
7
100
AcDbSpline
 70
8
 71
3
 72
8
 73
4
 74
0
 40
0
 40
0
 40
0
 40
0
 40
1
 40
1
 40
1
 40
1
 10
37.929118
 20
84.646682
 30
0.0
 10
37.863749
 20
84.496742
 30
0.0
 10
37.798907
 20
84.353379
 30
0.0
 10
37.734854
 20
84.213962
 30
0.0
  0
SPLINE
  5
194
100
AcDbEntity
  8
board_outline_and_fill_black
 62
7
100
AcDbSpline
 70
8
 71
3
 72
8
 73
4
 74
0
 40
0
 40
0
 40
0
 40
0
 40
1
 40
1
 40
1
 40
1
 10
37.734854
 20
84.213962
 30
0.0
 10
37.439842
 20
83.566856
 30
0.0
 10
37.226244
 20
83.098624
 30
0.0
 10
37.231111
 20
82.304209
 30
0.0
  0
SPLINE
  5
195
100
AcDbEntity
  8
board_outline_and_fill_black
 62
7
100
AcDbSpline
 70
8
 71
3
 72
8
 73
4
 74
0
 40
0
 40
0
 40
0
 40
0
 40
1
 40
1
 40
1
 40
1
 10
37.231111
 20
82.304209
 30
0.0
 10
37.234107
 20
81.858744
 30
0.0
 10
37.424732
 20
80.768015
 30
0.0
 10
37.422005
 20
80.516011
 30
0.0
  0
SPLINE
  5
196
100
AcDbEntity
  8
board_outline_and_fill_black
 62
7
100
AcDbSpline
 70
8
 71
3
 72
8
 73
4
 74
0
 40
0
 40
0
 40
0
 40
0
 40
1
 40
1
 40
1
 40
1
 10
37.422005
 20
80.516011
 30
0.0
 10
37.422005
 20
79.887634
 30
0.0
 10
37.157421
 20
79.705734
 30
0.0
 10
37.008593
 20
79.606511
 30
0.0
  0
SPLINE
  5
197
100
AcDbEntity
  8
board_outline_and_fill_black
 62
7
100
AcDbSpline
 70
8
 71
3
 72
8
 73
4
 74
0
 40
0
 40
0
 40
0
 40
0
 40
1
 40
1
 40
1
 40
1
 10
37.008593
 20
79.606511
 30
0.0
 10
36.859765
 20
79.507288
 30
0.0
 10
36.347136
 20
79.027732
 30
0.0
 10
35.169314
 20
80.031444
 30
0.0
  0
SPLINE
  5
198
100
AcDbEntity
  8
board_outline_and_fill_black
 62
7
100
AcDbSpline
 70
8
 71
3
 72
8
 73
4
 74
0
 40
0
 40
0
 40
0
 40
0
 40
1
 40
1
 40
1
 40
1
 10
35.169314
 20
80.031444
 30
0.0
 10
34.106717
 20
81.073128
 30
0.0
 10
33.103439
 20
82.056940
 30
0.0
 10
31.585238
 20
82.519911
 30
0.0
  0
SPLINE
  5
199
100
AcDbEntity
  8
board_outline_and_fill_black
 62
7
100
AcDbSpline
 70
8
 71
3
 72
8
 73
4
 74
0
 40
0
 40
0
 40
0
 40
0
 40
1
 40
1
 40
1
 40
1
 10
31.585238
 20
82.519911
 30
0.0
 10
30.679157
 20
82.794800
 30
0.0
 10
29.832263
 20
83.052590
 30
0.0
 10
28.976294
 20
82.910542
 30
0.0
  0
SPLINE
  5
19a
100
AcDbEntity
  8
board_outline_and_fill_black
 62
7
100
AcDbSpline
 70
8
 71
3
 72
8
 73
4
 74
0
 40
0
 40
0
 40
0
 40
0
 40
1
 40
1
 40
1
 40
1
 10
28.976294
 20
82.910542
 30
0.0
 10
28.080605
 20
82.761918
 30
0.0
 10
27.769018
 20
82.358134
 30
0.0
 10
27.203985
 20
81.624221
 30
0.0
  0
SPLINE
  5
19b
100
AcDbEntity
  8
board_outline_and_fill_black
 62
7
100
AcDbSpline
 70
8
 71
3
 72
8
 73
4
 74
0
 40
0
 40
0
 40
0
 40
0
 40
1
 40
1
 40
1
 40
1
 10
27.203985
 20
81.624221
 30
0.0
 10
27.073117
 20
81.454552
 30
0.0
 10
26.938697
 20
81.279623
 30
0.0
 10
26.784286
 20
81.092857
 30
0.0
  0
SPLINE
  5
19c
100
AcDbEntity
  8
board_outline_and_fill_black
 62
7
100
AcDbSpline
 70
8
 71
3
 72
8
 73
4
 74
0
 40
0
 40
0
 40
0
 40
0
 40
1
 40
1
 40
1
 40
1
 10
26.784286
 20
81.092857
 30
0.0
 10
26.554115
 20
80.814022
 30
0.0
 10
26.300535
 20
80.483893
 30
0.0
 10
26.031170
 20
80.134034
 30
0.0
  0
SPLINE
  5
19d
100
AcDbEntity
  8
board_outline_and_fill_black
 62
7
100
AcDbSpline
 70
8
 71
3
 72
8
 73
4
 74
0
 40
0
 40
0
 40
0
 40
0
 40
1
 40
1
 40
1
 40
1
 10
26.031170
 20
80.134034
 30
0.0
 10
24.743928
 20
78.461027
 30
0.0
 10
23.142076
 20
76.378975
 30
0.0
 10
21.164981
 20
75.834459
 30
0.0
  0
SPLINE
  5
19e
100
AcDbEntity
  8
board_outline_and_fill_black
 62
7
100
AcDbSpline
 70
8
 71
3
 72
8
 73
4
 74
0
 40
0
 40
0
 40
0
 40
0
 40
1
 40
1
 40
1
 40
1
 10
21.164981
 20
75.834459
 30
0.0
 10
20.145657
 20
75.552994
 30
0.0
 10
19.535115
 20
75.955462
 30
0.0
 10
19.131857
 20
76.222459
 30
0.0
  0
SPLINE
  5
19f
100
AcDbEntity
  8
board_outline_and_fill_black
 62
7
100
AcDbSpline
 70
8
 71
3
 72
8
 73
4
 74
0
 40
0
 40
0
 40
0
 40
0
 40
1
 40
1
 40
1
 40
1
 10
19.131857
 20
76.222459
 30
0.0
 10
18.810408
 20
76.434216
 30
0.0
 10
18.690325
 20
76.514447
 30
0.0
 10
18.331654
 20
76.411857
 30
0.0
  0
SPLINE
  5
1a0
100
AcDbEntity
  8
board_outline_and_fill_black
 62
7
100
AcDbSpline
 70
8
 71
3
 72
8
 73
4
 74
0
 40
0
 40
0
 40
0
 40
0
 40
1
 40
1
 40
1
 40
1
 10
18.331654
 20
76.411857
 30
0.0
 10
18.215912
 20
76.378975
 30
0.0
 10
18.097407
 20
76.309266
 30
0.0
 10
17.947731
 20
76.221144
 30
0.0
  0
SPLINE
  5
1a1
100
AcDbEntity
  8
board_outline_and_fill_black
 62
7
100
AcDbSpline
 70
8
 71
3
 72
8
 73
4
 74
0
 40
0
 40
0
 40
0
 40
0
 40
1
 40
1
 40
1
 40
1
 10
17.947731
 20
76.221144
 30
0.0
 10
17.727688
 20
76.090934
 30
0.0
 10
17.454115
 20
75.930472
 30
0.0
 10
17.085974
 20
75.834459
 30
0.0
  0
SPLINE
  5
1a2
100
AcDbEntity
  8
board_outline_and_fill_black
 62
7
100
AcDbSpline
 70
8
 71
3
 72
8
 73
4
 74
0
 40
0
 40
0
 40
0
 40
0
 40
1
 40
1
 40
1
 40
1
 10
17.085974
 20
75.834459
 30
0.0
 10
16.549086
 20
75.695041
 30
0.0
 10
16.107160
 20
75.796316
 30
0.0
 10
15.751778
 20
75.877862
 30
0.0
  0
SPLINE
  5
1a3
100
AcDbEntity
  8
board_outline_and_fill_black
 62
7
100
AcDbSpline
 70
8
 71
3
 72
8
 73
4
 74
0
 40
0
 40
0
 40
0
 40
0
 40
1
 40
1
 40
1
 40
1
 10
15.751778
 20
75.877862
 30
0.0
 10
15.565800
 20
75.919950
 30
0.0
 10
15.404813
 20
75.956778
 30
0.0
 10
15.283677
 20
75.943625
 30
0.0
  0
SPLINE
  5
1a4
100
AcDbEntity
  8
board_outline_and_fill_black
 62
7
100
AcDbSpline
 70
8
 71
3
 72
8
 73
4
 74
0
 40
0
 40
0
 40
0
 40
0
 40
1
 40
1
 40
1
 40
1
 10
15.283677
 20
75.943625
 30
0.0
 10
14.913301
 20
75.904167
 30
0.0
 10
14.894361
 20
75.867340
 30
0.0
 10
14.659062
 20
75.404370
 30
0.0
  0
SPLINE
  5
1a5
100
AcDbEntity
  8
board_outline_and_fill_black
 62
7
100
AcDbSpline
 70
8
 71
3
 72
8
 73
4
 74
0
 40
0
 40
0
 40
0
 40
0
 40
1
 40
1
 40
1
 40
1
 10
14.659062
 20
75.404370
 30
0.0
 10
14.556735
 20
75.203135
 30
0.0
 10
14.429023
 20
74.953236
 30
0.0
 10
14.244230
 20
74.680978
 30
0.0
  0
SPLINE
  5
1a6
100
AcDbEntity
  8
board_outline_and_fill_black
 62
7
100
AcDbSpline
 70
8
 71
3
 72
8
 73
4
 74
0
 40
0
 40
0
 40
0
 40
0
 40
1
 40
1
 40
1
 40
1
 10
14.244230
 20
74.680978
 30
0.0
 10
13.903841
 20
74.179865
 30
0.0
 10
13.449683
 20
73.894454
 30
0.0
 10
13.084962
 20
73.665600
 30
0.0
  0
SPLINE
  5
1a7
100
AcDbEntity
  8
board_outline_and_fill_black
 62
7
100
AcDbSpline
 70
8
 71
3
 72
8
 73
4
 74
0
 40
0
 40
0
 40
0
 40
0
 40
1
 40
1
 40
1
 40
1
 10
13.084962
 20
73.665600
 30
0.0
 10
12.694462
 20
73.419646
 30
0.0
 10
12.487441
 20
73.280229
 30
0.0
 10
12.408788
 20
73.027700
 30
0.0
  0
SPLINE
  5
1a8
100
AcDbEntity
  8
board_outline_and_fill_black
 62
7
100
AcDbSpline
 70
8
 71
3
 72
8
 73
4
 74
0
 40
0
 40
0
 40
0
 40
0
 40
1
 40
1
 40
1
 40
1
 10
12.408788
 20
73.027700
 30
0.0
 10
12.354468
 20
72.854086
 30
0.0
 10
12.456401
 20
72.577882
 30
0.0
 10
12.564252
 20
72.285895
 30
0.0
  0
SPLINE
  5
1a9
100
AcDbEntity
  8
board_outline_and_fill_black
 62
7
100
AcDbSpline
 70
8
 71
3
 72
8
 73
4
 74
0
 40
0
 40
0
 40
0
 40
0
 40
1
 40
1
 40
1
 40
1
 10
12.564252
 20
72.285895
 30
0.0
 10
12.727870
 20
71.843968
 30
0.0
 10
12.930945
 20
71.294191
 30
0.0
 10
12.742732
 20
70.686542
 30
0.0
  0
SPLINE
  5
1aa
100
AcDbEntity
  8
board_outline_and_fill_black
 62
7
100
AcDbSpline
 70
8
 71
3
 72
8
 73
4
 74
0
 40
0
 40
0
 40
0
 40
0
 40
1
 40
1
 40
1
 40
1
 10
12.742732
 20
70.686542
 30
0.0
 10
12.548732
 20
70.060480
 30
0.0
 10
12.086682
 20
69.751394
 30
0.0
 10
11.748792
 20
69.525170
 30
0.0
  0
SPLINE
  5
1ab
100
AcDbEntity
  8
board_outline_and_fill_black
 62
7
100
AcDbSpline
 70
8
 71
3
 72
8
 73
4
 74
0
 40
0
 40
0
 40
0
 40
0
 40
1
 40
1
 40
1
 40
1
 10
11.748792
 20
69.525170
 30
0.0
 10
11.376311
 20
69.276586
 30
0.0
 10
11.376311
 20
69.276586
 30
0.0
 10
11.490607
 20
68.945142
 30
0.0
  0
LWPOLYLINE
  5
1ac
100
AcDbEntity
  8
board_outline_and_fill_black
 62
7
100
AcDbPolyline
 90
1
 70
1
 10
58.216896
 20
72.931555
 30
0.0
  0
SPLINE
  5
1ad
100
AcDbEntity
  8
board_outline_and_fill_black
 62
7
100
AcDbSpline
 70
8
 71
3
 72
8
 73
4
 74
0
 40
0
 40
0
 40
0
 40
0
 40
1
 40
1
 40
1
 40
1
 10
10.822325
 20
67.954753
 30
0.0
 10
10.360538
 20
67.931078
 30
0.0
 10
9.839828
 20
67.712746
 30
0.0
 10
9.288604
 20
67.481260
 30
0.0
  0
SPLINE
  5
1ae
100
AcDbEntity
  8
board_outline_and_fill_black
 62
7
100
AcDbSpline
 70
8
 71
3
 72
8
 73
4
 74
0
 40
0
 40
0
 40
0
 40
0
 40
1
 40
1
 40
1
 40
1
 10
9.288604
 20
67.481260
 30
0.0
 10
8.924541
 20
67.327505
 30
0.0
 10
8.547456
 20
67.168888
 30
0.0
 10
8.160639
 20
67.057353
 30
0.0
  0
SPLINE
  5
1af
100
AcDbEntity
  8
board_outline_and_fill_black
 62
7
100
AcDbSpline
 70
8
 71
3
 72
8
 73
4
 74
0
 40
0
 40
0
 40
0
 40
0
 40
1
 40
1
 40
1
 40
1
 10
8.160639
 20
67.057353
 30
0.0
 10
7.683990
 20
66.919777
 30
0.0
 10
7.495908
 20
66.660277
 30
0.0
 10
7.210892
 20
66.267145
 30
0.0
  0
SPLINE
  5
1b0
100
AcDbEntity
  8
board_outline_and_fill_black
 62
7
100
AcDbSpline
 70
8
 71
3
 72
8
 73
4
 74
0
 40
0
 40
0
 40
0
 40
0
 40
1
 40
1
 40
1
 40
1
 10
7.210892
 20
66.267145
 30
0.0
 10
6.943106
 20
65.897954
 30
0.0
 10
6.609556
 20
65.438007
 30
0.0
 10
5.997173
 20
65.094595
 30
0.0
  0
SPLINE
  5
1b1
100
AcDbEntity
  8
board_outline_and_fill_black
 62
7
100
AcDbSpline
 70
8
 71
3
 72
8
 73
4
 74
0
 40
0
 40
0
 40
0
 40
0
 40
1
 40
1
 40
1
 40
1
 10
5.997173
 20
65.094595
 30
0.0
 10
5.641659
 20
64.895202
 30
0.0
 10
5.341254
 20
64.854823
 30
0.0
 10
5.122658
 20
64.824309
 30
0.0
  0
SPLINE
  5
1b2
100
AcDbEntity
  8
board_outline_and_fill_black
 62
7
100
AcDbSpline
 70
8
 71
3
 72
8
 73
4
 74
0
 40
0
 40
0
 40
0
 40
0
 40
1
 40
1
 40
1
 40
1
 10
5.122658
 20
64.824309
 30
0.0
 10
4.912743
 20
64.795375
 30
0.0
 10
4.894987
 20
64.793139
 30
0.0
 10
4.792792
 20
64.685420
 30
0.0
  0
SPLINE
  5
1b3
100
AcDbEntity
  8
board_outline_and_fill_black
 62
7
100
AcDbSpline
 70
8
 71
3
 72
8
 73
4
 74
0
 40
0
 40
0
 40
0
 40
0
 40
1
 40
1
 40
1
 40
1
 10
4.792792
 20
64.685420
 30
0.0
 10
4.706116
 20
64.594008
 30
0.0
 10
4.666922
 20
64.540084
 30
0.0
 10
4.650481
 20
64.514566
 30
0.0
  0
SPLINE
  5
1b4
100
AcDbEntity
  8
board_outline_and_fill_black
 62
7
100
AcDbSpline
 70
8
 71
3
 72
8
 73
4
 74
0
 40
0
 40
0
 40
0
 40
0
 40
1
 40
1
 40
1
 40
1
 10
4.650481
 20
64.514566
 30
0.0
 10
4.651546
 20
64.490489
 30
0.0
 10
4.654425
 20
64.454723
 30
0.0
 10
4.656267
 20
64.426313
 30
0.0
  0
SPLINE
  5
1b5
100
AcDbEntity
  8
board_outline_and_fill_black
 62
7
100
AcDbSpline
 70
8
 71
3
 72
8
 73
4
 74
0
 40
0
 40
0
 40
0
 40
0
 40
1
 40
1
 40
1
 40
1
 10
4.656267
 20
64.426313
 30
0.0
 10
4.668763
 20
64.265457
 30
0.0
 10
4.687044
 20
64.023185
 30
0.0
 10
4.632199
 20
63.685823
 30
0.0
  0
SPLINE
  5
1b6
100
AcDbEntity
  8
board_outline_and_fill_black
 62
7
100
AcDbSpline
 70
8
 71
3
 72
8
 73
4
 74
0
 40
0
 40
0
 40
0
 40
0
 40
1
 40
1
 40
1
 40
1
 10
4.632199
 20
63.685823
 30
0.0
 10
4.595898
 20
63.462888
 30
0.0
 10
4.541052
 20
63.234031
 30
0.0
 10
4.487915
 20
63.013199
 30
0.0
  0
SPLINE
  5
1b7
100
AcDbEntity
  8
board_outline_and_fill_black
 62
7
100
AcDbSpline
 70
8
 71
3
 72
8
 73
4
 74
0
 40
0
 40
0
 40
0
 40
0
 40
1
 40
1
 40
1
 40
1
 10
4.487915
 20
63.013199
 30
0.0
 10
4.339554
 20
62.396606
 30
0.0
 10
4.199742
 20
61.814082
 30
0.0
 10
4.409526
 20
61.319282
 30
0.0
  0
SPLINE
  5
1b8
100
AcDbEntity
  8
board_outline_and_fill_black
 62
7
100
AcDbSpline
 70
8
 71
3
 72
8
 73
4
 74
0
 40
0
 40
0
 40
0
 40
0
 40
1
 40
1
 40
1
 40
1
 10
4.409526
 20
61.319282
 30
0.0
 10
4.551705
 20
60.983495
 30
0.0
 10
4.857371
 20
60.837633
 30
0.0
 10
5.385578
 20
60.608121
 30
0.0
  0
SPLINE
  5
1b9
100
AcDbEntity
  8
board_outline_and_fill_black
 62
7
100
AcDbSpline
 70
8
 71
3
 72
8
 73
4
 74
0
 40
0
 40
0
 40
0
 40
0
 40
1
 40
1
 40
1
 40
1
 10
5.385578
 20
60.608121
 30
0.0
 10
6.026898
 20
60.329943
 30
0.0
 10
6.825390
 20
59.983241
 30
0.0
 10
7.246272
 20
59.006399
 30
0.0
  0
SPLINE
  5
1ba
100
AcDbEntity
  8
ground_mask
 62
7
100
AcDbSpline
 70
8
 71
3
 72
8
 73
4
 74
0
 40
0
 40
0
 40
0
 40
0
 40
1
 40
1
 40
1
 40
1
 10
26.697093
 20
18.723664
 30
0.0
 10
29.434242
 20
31.020989
 30
0.0
 10
22.492204
 20
37.367997
 30
0.0
 10
19.636051
 20
39.510111
 30
0.0
  0
SPLINE
  5
1bb
100
AcDbEntity
  8
ground_mask
 62
7
100
AcDbSpline
 70
8
 71
3
 72
8
 73
4
 74
0
 40
0
 40
0
 40
0
 40
0
 40
1
 40
1
 40
1
 40
1
 10
19.636051
 20
39.510111
 30
0.0
 10
20.826114
 20
40.977856
 30
0.0
 10
20.865783
 20
40.938187
 30
0.0
 10
20.865783
 20
40.938187
 30
0.0
  0
SPLINE
  5
1bc
100
AcDbEntity
  8
ground_mask
 62
7
100
AcDbSpline
 70
8
 71
3
 72
8
 73
4
 74
0
 40
0
 40
0
 40
0
 40
0
 40
1
 40
1
 40
1
 40
1
 10
20.865783
 20
40.938187
 30
0.0
 10
20.865783
 20
40.938187
 30
0.0
 10
31.394267
 20
33.945437
 30
0.0
 10
28.688662
 20
19.432181
 30
0.0
  0
LWPOLYLINE
  5
1bd
100
AcDbEntity
  8
board_outline_and_fill_black
 62
7
100
AcDbPolyline
 90
3
 70
0
 10
11.490607
 20
68.945142
 30
0.0
 10
11.814818
 20
68.006048
 30
0.0
 10
10.822325
 20
67.954753
 30
0.0
  0
SPLINE
  5
1be
100
AcDbEntity
  8
ground_mask
 62
1
100
AcDbSpline
 70
8
 71
3
 72
8
 73
4
 74
0
 40
0
 40
0
 40
0
 40
0
 40
1
 40
1
 40
1
 40
1
 10
21.064127
 20
35.305221
 30
0.0
 10
20.350089
 20
34.194495
 30
0.0
 10
18.406318
 20
28.759868
 30
0.0
 10
16.978242
 20
26.895434
 30
0.0
  0
SPLINE
  5
1bf
100
AcDbEntity
  8
ground_mask
 62
1
100
AcDbSpline
 70
8
 71
3
 72
8
 73
4
 74
0
 40
0
 40
0
 40
0
 40
0
 40
1
 40
1
 40
1
 40
1
 10
16.978242
 20
26.895434
 30
0.0
 10
15.550166
 20
25.031003
 30
0.0
 10
12.178318
 20
21.857500
 30
0.0
 10
11.702293
 20
21.024457
 30
0.0
  0
SPLINE
  5
1c0
100
AcDbEntity
  8
ground_mask
 62
1
100
AcDbSpline
 70
8
 71
3
 72
8
 73
4
 74
0
 40
0
 40
0
 40
0
 40
0
 40
1
 40
1
 40
1
 40
1
 10
11.702293
 20
21.024457
 30
0.0
 10
11.226267
 20
20.191411
 30
0.0
 10
11.059991
 20
18.803235
 30
0.0
 10
10.988255
 20
17.216251
 30
0.0
  0
SPLINE
  5
1c1
100
AcDbEntity
  8
ground_mask
 62
1
100
AcDbSpline
 70
8
 71
3
 72
8
 73
4
 74
0
 40
0
 40
0
 40
0
 40
0
 40
1
 40
1
 40
1
 40
1
 10
10.988255
 20
17.216251
 30
0.0
 10
10.857441
 20
14.322315
 30
0.0
 10
10.948586
 20
13.606390
 30
0.0
 10
12.416331
 20
11.226264
 30
0.0
  0
SPLINE
  5
1c2
100
AcDbEntity
  8
ground_mask
 62
1
100
AcDbSpline
 70
8
 71
3
 72
8
 73
4
 74
0
 40
0
 40
0
 40
0
 40
0
 40
1
 40
1
 40
1
 40
1
 10
12.416331
 20
11.226264
 30
0.0
 10
13.884076
 20
8.846136
 30
0.0
 10
14.479108
 20
8.568456
 30
0.0
 10
14.994803
 20
8.608125
 30
0.0
  0
SPLINE
  5
1c3
100
AcDbEntity
  8
ground_mask
 62
1
100
AcDbSpline
 70
8
 71
3
 72
8
 73
4
 74
0
 40
0
 40
0
 40
0
 40
0
 40
1
 40
1
 40
1
 40
1
 10
14.994803
 20
8.608125
 30
0.0
 10
15.510497
 20
8.647791
 30
0.0
 10
16.065860
 20
9.361830
 30
0.0
 10
16.859235
 20
11.146926
 30
0.0
  0
SPLINE
  5
1c4
100
AcDbEntity
  8
ground_mask
 62
1
100
AcDbSpline
 70
8
 71
3
 72
8
 73
4
 74
0
 40
0
 40
0
 40
0
 40
0
 40
1
 40
1
 40
1
 40
1
 10
16.859235
 20
11.146926
 30
0.0
 10
17.652611
 20
12.932020
 30
0.0
 10
18.737173
 20
14.692952
 30
0.0
 10
19.993070
 20
16.224532
 30
0.0
  0
SPLINE
  5
1c5
100
AcDbEntity
  8
ground_mask
 62
1
100
AcDbSpline
 70
8
 71
3
 72
8
 73
4
 74
0
 40
0
 40
0
 40
0
 40
0
 40
1
 40
1
 40
1
 40
1
 10
19.993070
 20
16.224532
 30
0.0
 10
21.619490
 20
18.207973
 30
0.0
 10
24.237630
 20
19.913731
 30
0.0
 10
24.554981
 20
20.429425
 30
0.0
  0
SPLINE
  5
1c6
100
AcDbEntity
  8
ground_mask
 62
1
100
AcDbSpline
 70
8
 71
3
 72
8
 73
4
 74
0
 40
0
 40
0
 40
0
 40
0
 40
1
 40
1
 40
1
 40
1
 10
24.554981
 20
20.429425
 30
0.0
 10
24.872331
 20
20.945119
 30
0.0
 10
25.626038
 20
23.602927
 30
0.0
 10
24.515312
 20
27.728483
 30
0.0
  0
SPLINE
  5
1c7
100
AcDbEntity
  8
ground_mask
 62
1
100
AcDbSpline
 70
8
 71
3
 72
8
 73
4
 74
0
 40
0
 40
0
 40
0
 40
0
 40
1
 40
1
 40
1
 40
1
 10
24.515312
 20
27.728483
 30
0.0
 10
23.404586
 20
31.854035
 30
0.0
 10
22.809554
 20
33.202773
 30
0.0
 10
21.064127
 20
35.305221
 30
0.0
  0
LWPOLYLINE
  5
1c8
100
AcDbEntity
  8
ground_mask
 62
7
100
AcDbPolyline
 90
2
 70
0
 10
28.688662
 20
19.432181
 30
0.0
 10
26.697093
 20
18.723664
 30
0.0
  0
SPLINE
  5
1c9
100
AcDbEntity
  8
ground_mask
 62
7
100
AcDbSpline
 70
8
 71
3
 72
8
 73
4
 74
0
 40
0
 40
0
 40
0
 40
0
 40
1
 40
1
 40
1
 40
1
 10
75.946330
 20
36.872578
 30
0.0
 10
73.742131
 20
28.670563
 30
0.0
 10
73.615552
 20
19.827098
 30
0.0
 10
76.471713
 20
17.684984
 30
0.0
  0
SPLINE
  5
1ca
100
AcDbEntity
  8
ground_mask
 62
7
100
AcDbSpline
 70
8
 71
3
 72
8
 73
4
 74
0
 40
0
 40
0
 40
0
 40
0
 40
1
 40
1
 40
1
 40
1
 10
76.471713
 20
17.684984
 30
0.0
 10
75.281649
 20
16.217240
 30
0.0
 10
75.101730
 20
16.789859
 30
0.0
 10
75.101730
 20
16.789859
 30
0.0
  0
SPLINE
  5
1cb
100
AcDbEntity
  8
ground_mask
 62
7
100
AcDbSpline
 70
8
 71
3
 72
8
 73
4
 74
0
 40
0
 40
0
 40
0
 40
0
 40
1
 40
1
 40
1
 40
1
 10
75.101730
 20
16.789859
 30
0.0
 10
75.101730
 20
16.789859
 30
0.0
 10
70.183253
 20
20.051952
 30
0.0
 10
74.487711
 20
37.987315
 30
0.0
  0
LWPOLYLINE
  5
1cc
100
AcDbEntity
  8
ground_mask
 62
1
100
AcDbPolyline
 90
1
 70
1
 10
21.064127
 20
35.305221
 30
0.0
  0
SPLINE
  5
1cd
100
AcDbEntity
  8
ground_mask
 62
1
100
AcDbSpline
 70
8
 71
3
 72
8
 73
4
 74
0
 40
0
 40
0
 40
0
 40
0
 40
1
 40
1
 40
1
 40
1
 10
76.957454
 20
32.131716
 30
0.0
 10
78.623540
 20
31.695357
 30
0.0
 10
82.006661
 20
29.740112
 30
0.0
 10
82.907769
 20
28.442519
 30
0.0
  0
SPLINE
  5
1ce
100
AcDbEntity
  8
ground_mask
 62
1
100
AcDbSpline
 70
8
 71
3
 72
8
 73
4
 74
0
 40
0
 40
0
 40
0
 40
0
 40
1
 40
1
 40
1
 40
1
 10
82.907769
 20
28.442519
 30
0.0
 10
83.899491
 20
27.014441
 30
0.0
 10
84.874776
 20
25.652094
 30
0.0
 10
86.025172
 20
24.462030
 30
0.0
  0
SPLINE
  5
1cf
100
AcDbEntity
  8
ground_mask
 62
1
100
AcDbSpline
 70
8
 71
3
 72
8
 73
4
 74
0
 40
0
 40
0
 40
0
 40
0
 40
1
 40
1
 40
1
 40
1
 10
86.025172
 20
24.462030
 30
0.0
 10
86.858217
 20
23.549646
 30
0.0
 10
87.930441
 20
22.575183
 30
0.0
 10
88.549535
 20
21.431593
 30
0.0
  0
SPLINE
  5
1d0
100
AcDbEntity
  8
ground_mask
 62
1
100
AcDbSpline
 70
8
 71
3
 72
8
 73
4
 74
0
 40
0
 40
0
 40
0
 40
0
 40
1
 40
1
 40
1
 40
1
 10
88.549535
 20
21.431593
 30
0.0
 10
89.056431
 20
20.316054
 30
0.0
 10
89.791714
 20
18.982922
 30
0.0
 10
89.395027
 20
15.968092
 30
0.0
  0
SPLINE
  5
1d1
100
AcDbEntity
  8
ground_mask
 62
1
100
AcDbSpline
 70
8
 71
3
 72
8
 73
4
 74
0
 40
0
 40
0
 40
0
 40
0
 40
1
 40
1
 40
1
 40
1
 10
89.395027
 20
15.968092
 30
0.0
 10
89.117346
 20
14.857369
 30
0.0
 10
88.557168
 20
12.897166
 30
0.0
 10
86.970417
 20
13.888885
 30
0.0
  0
SPLINE
  5
1d2
100
AcDbEntity
  8
ground_mask
 62
1
100
AcDbSpline
 70
8
 71
3
 72
8
 73
4
 74
0
 40
0
 40
0
 40
0
 40
0
 40
1
 40
1
 40
1
 40
1
 10
86.970417
 20
13.888885
 30
0.0
 10
85.383665
 20
14.880607
 30
0.0
 10
84.187323
 20
16.583598
 30
0.0
 10
81.617123
 20
17.752363
 30
0.0
  0
SPLINE
  5
1d3
100
AcDbEntity
  8
ground_mask
 62
1
100
AcDbSpline
 70
8
 71
3
 72
8
 73
4
 74
0
 40
0
 40
0
 40
0
 40
0
 40
1
 40
1
 40
1
 40
1
 10
81.617123
 20
17.752363
 30
0.0
 10
79.768421
 20
18.593037
 30
0.0
 10
78.217227
 20
19.231728
 30
0.0
 10
77.741202
 20
19.707753
 30
0.0
  0
SPLINE
  5
1d4
100
AcDbEntity
  8
ground_mask
 62
1
100
AcDbSpline
 70
8
 71
3
 72
8
 73
4
 74
0
 40
0
 40
0
 40
0
 40
0
 40
1
 40
1
 40
1
 40
1
 10
77.741202
 20
19.707753
 30
0.0
 10
77.265177
 20
20.183778
 30
0.0
 10
76.600433
 20
22.968226
 30
0.0
 10
76.481426
 20
24.316966
 30
0.0
  0
SPLINE
  5
1d5
100
AcDbEntity
  8
ground_mask
 62
1
100
AcDbSpline
 70
8
 71
3
 72
8
 73
4
 74
0
 40
0
 40
0
 40
0
 40
0
 40
1
 40
1
 40
1
 40
1
 10
76.481426
 20
24.316966
 30
0.0
 10
76.362422
 20
25.665704
 30
0.0
 10
76.362419
 20
28.878873
 30
0.0
 10
76.481426
 20
29.751587
 30
0.0
  0
SPLINE
  5
1d6
100
AcDbEntity
  8
ground_mask
 62
1
100
AcDbSpline
 70
8
 71
3
 72
8
 73
4
 74
0
 40
0
 40
0
 40
0
 40
0
 40
1
 40
1
 40
1
 40
1
 10
76.481426
 20
29.751587
 30
0.0
 10
76.600433
 20
30.624300
 30
0.0
 10
76.957454
 20
32.131716
 30
0.0
 10
76.957454
 20
32.131716
 30
0.0
  0
LWPOLYLINE
  5
1d7
100
AcDbEntity
  8
ground_mask
 62
7
100
AcDbPolyline
 90
2
 70
0
 10
74.487711
 20
37.987315
 30
0.0
 10
75.946330
 20
36.872578
 30
0.0
  0
LWPOLYLINE
  5
1d8
100
AcDbEntity
  8
ground_mask
 62
1
100
AcDbPolyline
 90
1
 70
1
 10
76.957454
 20
32.131716
 30
0.0
  0
ENDSEC
  0
SECTION
  2
OBJECTS
  0
DICTIONARY
  5
C
330
0
100
AcDbDictionary
  3
ACAD_GROUP
350
D
  3
ACAD_MLINESTYLE
350
17
  0
DICTIONARY
  5
D
330
C
100
AcDbDictionary
  0
DICTIONARY
  5
1A
330
C
100
AcDbDictionary
  0
DICTIONARY
  5
17
330
C
100
AcDbDictionary
  3
STANDARD
350
18
  0
DICTIONARY
  5
19
330
C
100
AcDbDictionary
  0
ENDSEC
  0
EOF
