<?xml version="1.0" encoding="UTF-8" standalone="no"?>
<svg
   xmlns:dc="http://purl.org/dc/elements/1.1/"
   xmlns:cc="http://creativecommons.org/ns#"
   xmlns:rdf="http://www.w3.org/1999/02/22-rdf-syntax-ns#"
   xmlns:svg="http://www.w3.org/2000/svg"
   xmlns="http://www.w3.org/2000/svg"
   xmlns:sodipodi="http://sodipodi.sourceforge.net/DTD/sodipodi-0.dtd"
   xmlns:inkscape="http://www.inkscape.org/namespaces/inkscape"
   viewBox="0 0 377.95278 377.95276"
   height="100mm"
   width="100mm"
   xml:space="preserve"
   id="svg2"
   version="1.1"
   sodipodi:docname="29166257.svg"
   inkscape:version="0.92.4 (5da689c313, 2019-01-14)"><sodipodi:namedview
     pagecolor="#ffffff"
     bordercolor="#666666"
     borderopacity="1"
     objecttolerance="10"
     gridtolerance="10"
     guidetolerance="10"
     inkscape:pageopacity="0"
     inkscape:pageshadow="2"
     inkscape:window-width="1920"
     inkscape:window-height="1018"
     id="namedview81"
     showgrid="false"
     inkscape:zoom="1"
     inkscape:cx="429.02285"
     inkscape:cy="325.02475"
     inkscape:window-x="1272"
     inkscape:window-y="-8"
     inkscape:window-maximized="1"
     inkscape:current-layer="svg2"
     inkscape:document-units="mm"
     units="mm" /><metadata
     id="metadata8"><rdf:RDF><cc:Work
         rdf:about=""><dc:format>image/svg+xml</dc:format><dc:type
           rdf:resource="http://purl.org/dc/dcmitype/StillImage" /><dc:title></dc:title></cc:Work></rdf:RDF></metadata><defs
     id="defs6"><clipPath
       id="clipPath20"
       clipPathUnits="userSpaceOnUse"><path
         id="path18"
         d="M 14670,0 H 0 V 14670 H 14670 V 0 M 7335,4476.29 c -1831.08,0 -3315.43,-294.81 -3315.43,-658.47 0,-363.71 1484.35,-658.53 3315.43,-658.53 1831.08,0 3315.4,294.82 3315.4,658.53 0,363.66 -1484.32,658.47 -3315.4,658.47"
         inkscape:connector-curvature="0" /></clipPath><radialGradient
       id="radialGradient26"
       spreadMethod="pad"
       gradientTransform="matrix(9561.8916,0,0,-10536.135,7334.9889,7754.1312)"
       gradientUnits="userSpaceOnUse"
       r="1"
       cy="0"
       cx="0"
       fy="0"
       fx="0"><stop
         id="stop22"
         offset="0"
         style="stop-opacity:1;stop-color:#ffffff" /><stop
         id="stop24"
         offset="1"
         style="stop-opacity:1;stop-color:#b1b1b0" /></radialGradient><clipPath
       id="clipPath36"
       clipPathUnits="userSpaceOnUse"><path
         id="path34"
         d="m 7335,3159.29 c -1831.08,0 -3315.43,294.82 -3315.43,658.53 0,363.66 1484.35,658.47 3315.43,658.47 1831.08,0 3315.4,-294.81 3315.4,-658.47 0,-363.71 -1484.32,-658.53 -3315.4,-658.53"
         inkscape:connector-curvature="0" /></clipPath><clipPath
       id="clipPath42"
       clipPathUnits="userSpaceOnUse"><path
         id="path40"
         d="M 4936.66,4479.8 V 3154.47 h 3875.4 V 4479.8 Z"
         inkscape:connector-curvature="0" /></clipPath><clipPath
       id="clipPath54"
       clipPathUnits="userSpaceOnUse"><path
         id="path52"
         d="m 7335,3159.29 c -1831.08,0 -3315.43,294.82 -3315.43,658.53 0,363.66 1484.35,658.47 3315.43,658.47 1831.08,0 3315.4,-294.81 3315.4,-658.47 0,-363.71 -1484.32,-658.53 -3315.4,-658.53"
         inkscape:connector-curvature="0" /></clipPath><clipPath
       id="clipPath60"
       clipPathUnits="userSpaceOnUse"><path
         id="path58"
         d="M 8804.52,4479.8 V 3154.47 H 9732.5 V 4479.8 Z"
         inkscape:connector-curvature="0" /></clipPath><clipPath
       id="clipPath72"
       clipPathUnits="userSpaceOnUse"><path
         id="path70"
         d="m 7335,3159.29 c -1831.08,0 -3315.43,294.82 -3315.43,658.53 0,363.66 1484.35,658.47 3315.43,658.47 1831.08,0 3315.4,-294.81 3315.4,-658.47 0,-363.71 -1484.32,-658.53 -3315.4,-658.53"
         inkscape:connector-curvature="0" /></clipPath><clipPath
       id="clipPath78"
       clipPathUnits="userSpaceOnUse"><path
         id="path76"
         d="m 4199.81,4291.19 v -948.1 h 744.4 v 948.1 z"
         inkscape:connector-curvature="0" /></clipPath><clipPath
       id="clipPath90"
       clipPathUnits="userSpaceOnUse"><path
         id="path88"
         d="m 7335,3159.29 c -1831.08,0 -3315.43,294.82 -3315.43,658.53 0,363.66 1484.35,658.47 3315.43,658.47 1831.08,0 3315.4,-294.81 3315.4,-658.47 0,-363.71 -1484.32,-658.53 -3315.4,-658.53"
         inkscape:connector-curvature="0" /></clipPath><clipPath
       id="clipPath96"
       clipPathUnits="userSpaceOnUse"><path
         id="path94"
         d="m 9724.95,4291.19 v -948.1 h 744.45 v 948.1 z"
         inkscape:connector-curvature="0" /></clipPath><clipPath
       id="clipPath108"
       clipPathUnits="userSpaceOnUse"><path
         id="path106"
         d="m 7335,3159.29 c -1831.08,0 -3315.43,294.82 -3315.43,658.53 0,363.66 1484.35,658.47 3315.43,658.47 1831.08,0 3315.4,-294.81 3315.4,-658.47 0,-363.71 -1484.32,-658.53 -3315.4,-658.53"
         inkscape:connector-curvature="0" /></clipPath><clipPath
       id="clipPath114"
       clipPathUnits="userSpaceOnUse"><path
         id="path112"
         d="M 4016.23,4102.57 V 3531.7 h 191.13 v 570.87 z"
         inkscape:connector-curvature="0" /></clipPath><clipPath
       id="clipPath126"
       clipPathUnits="userSpaceOnUse"><path
         id="path124"
         d="m 7335,3159.29 c -1831.08,0 -3315.43,294.82 -3315.43,658.53 0,363.66 1484.35,658.47 3315.43,658.47 1831.08,0 3315.4,-294.81 3315.4,-658.47 0,-363.71 -1484.32,-658.53 -3315.4,-658.53"
         inkscape:connector-curvature="0" /></clipPath><clipPath
       id="clipPath132"
       clipPathUnits="userSpaceOnUse"><path
         id="path130"
         d="M 10461.8,4102.57 V 3531.7 h 191.1 v 570.87 z"
         inkscape:connector-curvature="0" /></clipPath></defs><g
     transform="matrix(0.26044717,0,0,-0.26044717,-171.80551,620.07519)"
     id="g10"><g
       transform="scale(0.190866)"
       id="g12"><path
         id="path160"
         style="fill:#100f0d;fill-opacity:1;fill-rule:nonzero;stroke:none"
         d="m 8944.09,5829.28 c -57.63,3.2 -136.54,7.65 -179.6,79.74 -66.75,111.66 15.14,182.7 59.15,220.89 17.13,14.88 36.52,31.7 41.29,43.54 4.5,11.21 5.45,17.55 5.6,20.28 -4.35,3.56 -15.04,8.8 -21.69,12.05 -25.15,12.42 -101.54,50.09 -64.44,138.21 14.3,34.06 47.83,77.17 126.26,89.17 39.72,6.08 81.89,3.04 115.79,0.58 14.78,-1.05 28.71,-2.04 38.88,-2.04 20.12,0.1 50.19,0.68 78.74,5.08 39.14,5.97 55.75,16.29 59.36,21.48 1.32,1.83 0.84,6.39 0.37,9.12 -2.04,3.4 -8.85,10.63 -13.41,15.56 -19.86,21.01 -53.02,56.27 -51.87,115.15 0.89,49.31 29.5,80.95 46.58,99.81 0.47,0.53 0.99,1.05 1.47,1.63 -21.54,10.79 -92.11,7.6 -131.2,5.81 -91.06,-4.19 -177.03,-8.07 -217.48,52.08 -23.42,34.84 -22.53,80.27 2.67,134.91 44.17,95.67 140.31,130.25 217.59,158.07 100.12,36 138,55.59 138.37,119.62 0.37,74.87 -12.31,182.37 -29.18,208.73 -3.83,4.14 -22.43,11.53 -33.59,15.93 -32.06,12.73 -76.02,30.12 -93.15,76.28 -13.83,37.15 3.3,74.24 18.39,107.04 4.14,8.96 10.37,22.48 11.42,27.35 8.49,77.02 -40.29,116.52 -127.21,179.6 -64.97,47.21 -138.63,100.65 -175.2,187.73 -60.41,143.87 -24.05,195.95 57.26,290.98 l 3.04,3.57 c 111.55,130.4 101.43,172.32 100.96,173.99 -14.25,50.62 -90.17,78.12 -170.54,107.25 -85.24,30.91 -181.9,65.96 -233.72,143.35 l -11.42,17.08 c -44.59,67.27 -44.59,67.27 -96.93,59.31 -9.06,-1.42 -19.12,-3.3 -30.7,-5.76 -33.32,-7.13 -64.18,-16.98 -96.82,-27.41 -43.86,-13.99 -89.23,-28.39 -141.99,-36.46 l -21.85,-3.3 c -166.61,-25.41 -323.99,-49.46 -490.45,14.77 -95.51,36.83 -174.04,97.77 -240.06,186.21 -12.15,16.29 -24.67,37.62 -39.14,62.35 -2.3,3.98 -5.03,8.59 -8.07,13.72 37.73,-97.5 94.89,-214.13 159.91,-325.1 19.33,-32.95 41.29,-66.38 62.56,-98.71 80.42,-122.33 163.57,-248.86 155.29,-414.11 -7.29,-144.76 -87.19,-266 -215.7,-340.76 -395.1424,-179.2651 -650.5016,16.1483 -692.64,75.86 -169.12,195.74 -85.66,310.01 11.06,442.25 14.25,19.6 29.08,39.87 44.22,61.72 l 24.2,34.73 c 91.11,130.78 204.55,293.46 245.94,436.96 15.24,52.76 3.09,133.08 -26.41,175.42 -10.85,15.55 -17.97,21.16 -20.8,22.94 -12.47,-4.71 -39.66,-33.79 -56.16,-51.45 -7.86,-8.33 -15.83,-16.87 -24,-25.25 -15.46,-15.82 -31.54,-30.6 -47.1,-44.95 -47.99,-44.17 -89.44,-82.36 -102.69,-136.07 -5.66,-22.95 -0.68,-53.96 4.61,-86.76 6.49,-40.66 13.25,-82.67 2.51,-124.01 l -4.76,-18.5 -15.04,-11.89 c -15.98,-12.58 -34.27,-20.49 -54.34,-23.58 -68.63,-10.48 -138.89,38.88 -213.28,91.11 -49.78,35 -101.23,71.1 -144.45,83.57 -43.38,12.57 -81.21,25.88 -114.54,37.57 -90.26,31.74 -155.44,54.69 -266.36,41.44 -111.39,-13.31 -245.56,-154.72 -249.02,-219.06 -2.1,-39.24 5.66,-83.77 13.88,-130.88 18.29,-105.09 41.08,-235.92 -68.16,-322.84 -34.89,-27.71 -73.09,-44.22 -106.83,-58.78 -42.54,-18.34 -76.18,-32.86 -97.56,-63.72 -25.56,-36.77 -21.79,-42.12 7.65,-83.72 16.4,-23.21 36.83,-52.08 49.62,-90.74 23.52,-71.1 -0.21,-123.49 -17.55,-161.74 -15.4,-34 -23.11,-53.07 -15.04,-82.94 12.42,-46.31 32.43,-50.61 100.07,-58.36 17.92,-2.05 36.41,-4.19 56.01,-7.91 83.72,-16.03 145.49,-58.21 169.38,-115.84 14.68,-35.32 22.06,-92.37 -26.14,-163.63 -40.66,-60.14 -93.89,-74.55 -130.35,-80.11 -16.4,-2.51 -32.38,-3.51 -47.78,-4.56 -14.2,-0.89 -27.56,-1.78 -40.19,-3.66 -16.45,-2.52 -29.18,-6.6 -40.08,-12.84 -22.21,-12.68 -40.5,-42.86 -47.78,-78.75 -7.6,-37.2 -1.78,-74.08 15.14,-96.34 19.75,-25.99 50.87,-27.41 116.99,-24.42 40.82,1.83 82.94,3.72 124.12,-8.59 21.22,-6.34 85.66,-25.67 99.81,-82.94 14.88,-60.15 -34,-107.93 -85.66,-158.54 -70.84,-69.32 -100.91,-108.19 -80.27,-141.78 4.35,-7.12 20.54,-12.05 37.67,-17.28 26.15,-7.92 58.58,-17.82 83.78,-45.33 36.31,-39.6 38.87,-69.99 38.4,-105.51 -0.16,-9.8 -0.31,-19.97 1,-32.7 9.53,-94.25 20.9,-98.6 129.88,-139.99 l 10.79,-4.09 c 128.26,-48.93 173.16,-139.52 137.27,-276.9 -15.87,-60.77 -53.6,-100.48 -83.88,-132.45 -32.01,-33.68 -50.24,-54.32 -51.92,-86.44 -3.04,-56.22 26.46,-153.41 56.32,-185.79 7.91,-8.54 24.42,-13.2 39.19,-10.95 7.91,1.26 14.2,4.25 16.77,8.18 207.2386,80.8607 261.2874,139.5276 346,47.04 41.34,-47.67 49.25,-115.05 23.47,-200.14 -13.05,-42.96 -34.31,-74.13 -53.07,-101.64 -25.2,-36.88 -38.3,-57.74 -36.68,-93.42 1.94,-41.75 11.06,-72.35 24.84,-83.77 8.33,-6.86 22.32,-8.96 41.6,-6.29 l 2.04,0.32 c 28.81,4.4 54.28,15.61 81.16,27.45 29.71,13.05 63.34,27.87 103.68,34.01 23.95,3.66 47.68,4.03 72.62,1.09 68.16,-8.06 113.59,-23.89 158.17,-84.3 19.97,-27.03 21.01,-55.38 21.64,-72.3 v -0.26 c 23,4.93 60.83,27.87 88.76,44.8 32.06,19.43 59.72,36.25 85.34,42.64 13.52,3.36 26.46,5.98 38.57,7.81 136.63,20.91 190.65,-57.32 230.52,-132.24 30.86,-57.89 54.12,-54.59 68.11,-52.5 l 0.16,0.06 c 31.39,4.82 72.35,29.7 115.74,56.11 51.86,31.54 110.7,67.27 173.99,80.26 78.38,16.19 152.47,-2.3 217.07,-18.54 50.87,-12.74 98.91,-24.79 141.3,-18.34 31.64,4.87 59.2,19.75 86.76,46.89 53.6,52.76 63.24,90.69 41.19,162.37 -14.83,48.04 -31.65,102.53 -2,149.79 26.98,42.96 78.8,55.38 115.43,60.98 6.17,0.94 12.78,1.84 19.75,2.52 41.34,4.5 83.82,7.65 124.9,10.69 61.46,4.45 124.96,9.16 186,18.44 66.74,10.21 123.38,25.04 173.1,45.32 60.2,24.57 68.01,47.99 89.01,110.49 5.93,17.77 12.68,37.83 21.49,59.84 10.06,24.99 23.94,47.78 37.35,69.79 41.34,67.69 40.56,79.58 19.44,101.16 -15.98,16.25 -51.19,18.24 -88.49,20.33"
         inkscape:connector-curvature="0"
         sodipodi:nodetypes="cccccccccccccccccccccccccccccccccccccccccccccccccccccccccccccccccccccccccccccccccccccccccccccccccccccccccccccccccccccccccccccccccccccccccccc" /><g
         id="g14"><g
           clip-path="url(#clipPath20)"
           id="g16" /></g><g
         id="g30"><g
           clip-path="url(#clipPath36)"
           id="g32"><g
             clip-path="url(#clipPath42)"
             id="g38"><g
               transform="matrix(3877.2,0,0,1326.2,4935.9,3153.9)"
               id="g44" /></g></g></g><g
         id="g48"><g
           clip-path="url(#clipPath54)"
           id="g50"><g
             clip-path="url(#clipPath60)"
             id="g56"><g
               transform="matrix(929.199,0,0,1326.2,8803.9,3153.9)"
               id="g62" /></g></g></g><g
         id="g66"><g
           clip-path="url(#clipPath72)"
           id="g68"><g
             clip-path="url(#clipPath78)"
             id="g74"><g
               transform="matrix(746.2,0,0,949.2,4198.9,3342.9)"
               id="g80" /></g></g></g><g
         id="g84"><g
           clip-path="url(#clipPath90)"
           id="g86"><g
             clip-path="url(#clipPath96)"
             id="g92"><g
               transform="matrix(746.199,0,0,949.2,9723.9,3342.9)"
               id="g98" /></g></g></g><g
         id="g102"><g
           clip-path="url(#clipPath108)"
           id="g104"><g
             clip-path="url(#clipPath114)"
             id="g110"><g
               transform="matrix(192.2,0,0,572.2,4015.9,3530.9)"
               id="g116" /></g></g></g><g
         id="g120"><g
           clip-path="url(#clipPath126)"
           id="g122"><g
             clip-path="url(#clipPath132)"
             id="g128"><g
               transform="matrix(192.199,0,0,572.2,10460.9,3530.9)"
               id="g134" /></g></g></g><path
         id="path138"
         style="fill:#100f0d;fill-opacity:1;fill-rule:nonzero;stroke:none"
         d="m 6349.86,10912.1 c 185.78,-135.1 313.31,-326.1 436.53,-510.8 26.78,-40.1 53.03,-79.3 79.43,-117.6 -89.43,365.3 -243.1,743.9 -243.1,743.9 117.2,-117 227.8,-407 329.03,-862 20.75,-26.8 42.07,-52.8 64.18,-78 -48.62,364.2 -253.53,1212.9 -253.53,1212.9 199.46,-378.1 260.71,-837.1 309.9,-1205.8 4.61,-34.8 9.12,-68.5 13.63,-101.33 14.4,-25.3 26.56,-52.29 36.41,-80.99 4.82,144.22 6.86,257.72 0.68,358.72 -6.76,111 -18.65,220.5 -30.18,326.3 -11.89,109 -24.15,221.7 -30.75,336 -3.2,54.6 -7.29,111.6 -11.27,166.7 -13.36,185 -27.14,376.2 -13.41,557 4.93,64.8 21.79,132.1 38.14,197.2 25.88,103 87.18,318.3 87.18,318.3 23.84,-109.7 -4.55,-222.8 -32.06,-332.2 -16.45,-65.6 -32.01,-127.6 -36.62,-187.6 -13.37,-176.6 0.26,-365.7 13.46,-548.6 3.93,-55.3 8.07,-112.5 11.26,-167.6 6.61,-112.8 18.76,-224.7 30.55,-333 11.58,-106.5 23.58,-216.7 30.49,-329.1 7.91,-129.6 2.36,-284.82 -4.76,-481.38 -1,-28.86 -2.1,-58.96 -3.2,-90.07 16.82,52.33 41.13,100.52 70.05,145.25 0.1,82.68 -0.63,169.8 -1.42,261 -3.71,441.4 -7.91,941.7 78.28,1304.9 0,0 -25.1,-866.2 -21.43,-1304.4 0.53,-63.4 1.05,-124.72 1.26,-184.07 10.53,12.92 21.32,25.57 32.27,37.9 28.61,238.97 118.52,581.67 203.81,701.47 0,0 -100.38,-395.5 -137.01,-631.3 25.73,25.7 51.66,51.2 76.86,75.8 114.8,112.3 223.3,218.4 303.41,351.3 22.16,42.9 32.33,120 23.68,180 -20.8,145.1 -60.83,261.4 -107.14,396.1 -5.4,15.6 -10.79,31.3 -16.24,47.4 -55.59,162.9 -93.58,322.1 -123.23,516.3 -13.68,89.5 -25.15,179.8 -36.26,267.2 -10.9,85.8 -22.11,174.5 -35.31,260.9 -34.63,226.5 -81.47,348.4 -229.69,344.4 -122.65,-3.3 -212.92,-104.6 -300.37,-202.6 -21.11,-23.7 -40.97,-46 -61.56,-67.2 -148.74,-153.6 -260.13,-277 -361.25,-400.1 -63.18,-76.9 -117.1,-167 -144.24,-240.9 -12.89,-35.1 -15.09,-70.2 -17.44,-107.4 -2.83,-44.7 -6.03,-95.5 -28.98,-148.6 -4.97,-11.4 -9.9,-22.3 -14.77,-32.9 -22.43,-49.2 -38.67,-84.8 -38.3,-145.2 0.37,-55 17.29,-127.6 33.01,-192.9 9.79,-8 19.75,-15.8 30.02,-23.3"
         inkscape:connector-curvature="0" /><path
         id="path140"
         style="fill:#100f0d;fill-opacity:1;fill-rule:nonzero;stroke:none"
         d="m 4007.06,9356.95 c 1.99,-4.56 3.5,-8.86 5.13,-13.26 120.43,84.41 245.45,169.38 391,206.54 222.33,56.78 502.59,99.48 749.68,114.26 269.22,16.12 564.08,-115.89 842.6,-260.91 155.98,-81.26 313.26,-180.08 467.4,-293.72 70.42,-51.92 158.02,-116.52 208.05,-157.7 23.89,-19.7 62.24,-52.55 101.12,-90.9 6.08,13.15 13.1,25.51 20.8,37.2 -42.75,83.2 -117.78,185.15 -153.93,225.34 -58.42,64.81 -193.7,171.22 -290.78,236.66 l -39.66,26.88 c -165.72,112.03 -296.6,200.54 -490.77,277.81 -174.99,69.6 -351.34,101.89 -538.02,136.08 -26.25,4.8 -52.51,9.6 -78.88,14.53 -232.74,43.56 -721.26,45.22 -721.26,45.22 236.04,92.01 490.9,55.7 731.69,10.66 26.3,-4.94 52.52,-9.73 78.67,-14.53 189.55,-34.7 368.58,-67.46 548.76,-139.18 199.93,-79.54 333.06,-169.55 501.61,-283.53 l 39.66,-26.79 c 98.55,-66.43 237.6,-175.15 301.26,-245.82 29.65,-32.96 101.27,-126.85 150.05,-214.66 12.21,13.36 24.94,25.88 37.67,37.88 -80.58,161.47 -173.36,297.7 -289.62,425.38 -100.75,110.7 -219.79,182.76 -345.8,259.02 -20.85,12.6 -41.86,25.34 -63.03,38.36 l -13.15,8.08 c -235.03,144.83 -725.69,380.85 -725.69,380.85 288.63,-44.8 515.39,-184.52 755.56,-332.47 l 13.1,-8.08 c 21.01,-12.93 41.91,-25.58 62.66,-38.11 129.62,-78.5 252.06,-152.59 358.36,-269.37 116.27,-127.72 209.74,-263.62 290.99,-423.37 6.34,5.97 12.42,11.95 18.39,17.97 -90.9,239.44 -257.61,556.53 -351.55,687.68 -65.96,92.06 -151.26,175.24 -226.08,245.98 -13.04,12.3 -26.14,25.67 -40.08,39.77 -55.53,56.4 -179.18,187.3 -179.18,187.3 88.07,-13.9 157.96,-84.8 219.68,-147.4 13.52,-13.8 26.3,-26.8 38.62,-38.4 76.7,-72.55 164.35,-157.99 233.25,-254.15 92.26,-128.79 229.85,-392.28 320.96,-607.71 -9.38,100.54 33.42,236.29 65.91,339.04 7.65,24.27 17.18,54.48 18.44,62.5 29.65,195.1 0.79,342.58 -85.82,438.32 -94.52,104.5 -175.04,225.2 -252.95,342 -117.73,176.4 -239.49,358.8 -408.88,482 -57.89,42.2 -106.2,89.5 -152.93,135.3 -80.79,79.2 -157.07,154 -272.5,189.2 -68.89,20.9 -133.28,40.5 -198.36,29.7 -68.1,-11.3 -91.79,-42 -134.75,-97.8 -9.95,-12.9 -20.17,-26.2 -31.91,-40.4 -17.5,-21.2 -36.78,-46.3 -57.26,-72.9 -97.87,-127.2 -219.66,-285.5 -369.98,-326.9 -77.5,-21.4 -123.92,9.2 -154.58,29.5 -24.44,16.1 -33.57,22.2 -60.84,14.4 -8.8,-2.5 -17.81,-7.8 -29.19,-14.5 -16.73,-9.9 -37.53,-22.1 -65.52,-29.4 -40.82,-10.6 -74.42,-2.9 -101.44,3.3 -14.14,3.2 -26.38,6 -35.59,5 -28.16,-3 -29.6,-5.8 -47.49,-41 -7.78,-15.3 -17.49,-34.3 -31.54,-55 -25.88,-38.1 -60.41,-59.8 -88.14,-77.2 -29.69,-18.7 -45.43,-29.3 -51.41,-48.5 -4.13,-13.2 3.62,-34.2 11.82,-56.4 12.44,-33.6 27.88,-75.4 13.57,-121.6 -14.75,-47.6 -49.88,-71.1 -75.57,-88.3 -28.32,-18.9 -28.32,-18.9 -19.63,-44.1 l 24.65,-71.4 -75.46,-3.9 c -35.11,-1.8 -74.7,-18.4 -116.61,-36 -27.68,-11.69 -56.35,-23.75 -85.76,-32.23 -36.24,-10.46 -50.54,-30.19 -72.21,-60.08 -20.36,-28.07 -45.72,-63.04 -92.28,-89.15 -27.03,-15.16 -49.87,-18.23 -66.49,-20.55 -15.96,-2.2 -17.31,-2.37 -25.08,-10.56 -6.59,-6.95 -9.57,-11.05 -10.82,-12.99 0.08,-1.83 0.3,-4.55 0.44,-6.71 0.95,-12.23 2.34,-30.65 -1.83,-56.3 -2.76,-16.95 -6.93,-34.35 -10.97,-51.14 -11.28,-46.88 -21.91,-91.17 -5.96,-128.79 10.81,-25.53 34.05,-36.62 74.21,-54.07 48.76,-21.15 109.47,-47.51 141.47,-121.78"
         inkscape:connector-curvature="0" /><path
         id="path142"
         style="fill:#100f0d;fill-opacity:1;fill-rule:nonzero;stroke:none"
         d="m 7062.14,9152.3 c 5.66,1.78 11.52,3.15 17.55,4.09 7.96,1.2 15.82,1.31 23.63,0.78 0.47,93.05 1.78,179.5 3.51,259.92 -17.03,-55.38 -35.31,-120.13 -43.59,-178.08 -6.39,-44.9 -4.61,-71.62 -1.1,-86.71"
         inkscape:connector-curvature="0" /><path
         id="path144"
         style="fill:#100f0d;fill-opacity:1;fill-rule:nonzero;stroke:none"
         d="m 4758.27,8143.11 c 22.99,-15.77 55.09,-27.98 89.09,-40.92 41.26,-15.67 88.02,-33.43 129.05,-62.08 39.58,-27.67 69.52,-63.4 98.43,-98.03 27.04,-32.33 52.53,-62.82 81.86,-81.11 61.98,-38.72 84.32,-21.79 152.84,67.54 40.14,52.18 88.44,114.95 161.59,132.13 38.66,45.95 88.64,67.64 133.28,86.97 29.87,12.84 58.11,25 81.11,43.33 53.75,42.76 45.27,109.29 26.93,214.4 -8.91,51.29 -18.13,104.31 -15.36,156.39 6.4,119.19 162.95,276.27 307.29,317.29 -53.6,8.12 -107.46,13.36 -160.43,15.09 -280.3,9.01 -689.45,-200.61 -689.45,-200.61 267.9,318.54 795.44,307.38 1175.66,158.7 11.05,-3.78 22.21,-7.66 33.53,-11.64 33.43,-11.79 68.06,-23.94 108.35,-35.57 61.46,-17.76 120.82,-59.47 178.19,-99.81 34.63,-24.31 83.61,-58.68 113.48,-68.95 -0.26,3.2 -0.63,6.55 -1,9.9 -124.32,122.76 -355.64,251.59 -528.96,329.97 -198.46,89.7 -421.97,140.47 -652.6,188.78 -314.62,65.85 -1007.98,-54.34 -1007.98,-54.34 294.15,150.79 735.59,169.44 1019.66,109.92 233.83,-48.93 460.59,-100.49 664.35,-192.59 59.41,-26.88 320.59,-149.01 493.38,-293.98 -1.94,21.69 -2.04,44.01 1.83,66.38 -43.59,45.43 -90.27,85.56 -117.62,108.04 -48.83,40.18 -135.75,104.26 -205.64,155.82 -151.78,111.91 -306.5,209.14 -459.91,289.05 -271.29,141.26 -557.51,269.86 -812.99,254.58 -243.64,-14.56 -519.9,-56.65 -738.99,-112.59 -141.86,-36.22 -267.11,-124.08 -388.24,-209.11 -1.12,-0.79 -2.2,-1.52 -3.29,-2.31 3.61,-68.89 -41.1,-105.57 -73.39,-131.87 -17.31,-14.09 -33.64,-27.4 -45.5,-45.37 -28.51,-42.96 -37.98,-134.55 -19.93,-192.02 15.51,-49.35 46.14,-65.39 108.4,-94.15 20.59,-9.48 41.85,-19.33 64.26,-31.91 36.81,-20.7 82.43,-36.1 130.77,-52.34 111.55,-37.56 237.96,-80.16 292.75,-206.74 75.34,-174 128.95,-285.75 275.2,-386.24"
         inkscape:connector-curvature="0" /><path
         id="path146"
         style="fill:#100f0d;fill-opacity:1;fill-rule:nonzero;stroke:none"
         d="m 6965.68,8308.67 c -15.98,-23 -31.17,-43.8 -45.95,-63.97 -94.83,-129.78 -126.78,-173.53 -16.71,-300.9 77.86,-90.11 226.13,-133.34 377.81,-110.17 146.75,22.42 321.43,116.1 331.01,306.49 6.4,128.1 -63.13,233.93 -136.79,345.95 -22.01,33.54 -44.85,68.22 -65.65,103.74 -56.95,97.14 -108.3,199.04 -147.07,290.41 -1.15,-23.15 -4.71,-45.63 -10.74,-66.54 -46.58,-161.57 -165.98,-332.79 -261.86,-470.43 l -24.05,-34.58"
         inkscape:connector-curvature="0" /><path
         id="path148"
         style="fill:#100f0d;fill-opacity:1;fill-rule:nonzero;stroke:none"
         d="m 7553.95,10028.4 c -27.56,-27 -56.11,-54.93 -83.93,-82.98 -118.99,-119.81 -226.39,-256.61 -207.01,-444.53 18.29,-176.59 112.18,-369.39 169.86,-444.05 l -2.36,-1.83 c 7.97,-13 15.67,-26.1 23.21,-38.98 10.22,-17.5 19.96,-34.11 27.77,-45.64 127.89,46.68 269.35,198.88 357.69,293.93 10.84,11.68 20.95,22.58 30.23,32.43 16.24,17.18 31.38,33 45.58,47.94 102.01,106.94 158.22,165.87 264.79,346.27 57.43,97.11 85.04,201.63 114.38,312.34 10.68,40.4 21.79,82.3 34.42,123.8 27.51,90.1 34.16,175.1 41.28,265.2 5.09,65.1 10.43,132.5 24.16,202.8 0,0 37.51,-143.8 32.48,-207.3 -7.02,-89.1 -14.3,-181.2 -43.54,-277.3 -12.36,-40.4 -23.31,-81.8 -33.89,-121.8 -29.03,-109.52 -59,-222.77 -120.35,-326.64 -109.87,-186 -167.66,-246.59 -272.6,-356.56 -14.15,-14.88 -29.19,-30.65 -45.37,-47.79 -9.17,-9.74 -19.18,-20.53 -29.92,-32.06 -87.87,-94.57 -225.71,-242.95 -361.72,-301.31 16.98,-18.5 34.68,-35.26 53.49,-49.93 95.72,30.02 175.41,100.54 259.03,174.63 37.99,33.68 76.97,68.21 117.99,98.91 56.43,67.22 131.25,134.5 210.46,205.75 140.26,126 299.17,268.8 420.4,463.96 68.95,110.96 114.69,208.94 139.79,299.44 42.12,151.8 120.34,537.7 120.34,537.7 32.38,-167.1 -21.95,-395.6 -65.59,-552.9 -26.56,-95.8 -74.45,-198.61 -146.23,-314.22 -125.59,-202.03 -287.64,-347.72 -430.67,-476.26 -10.01,-8.96 -19.86,-17.82 -29.66,-26.67 93.21,52.81 187.36,100.02 281.93,141.36 39.51,26.91 79.85,53.58 122.45,81.8 184.79,122.3 375.81,248.75 486.15,385.22 141.14,174.47 300.47,513.77 300.47,513.77 -22.11,-181.7 -108.35,-366.6 -256.25,-549.51 -97.71,-120.78 -251.49,-231.34 -410.19,-337.77 128.68,43.28 266.63,80.92 409.87,112.15 107.09,48.58 303.15,202.59 433.29,304.78 35.58,27.97 66.38,52.13 91.01,70.85 141.25,107.2 281.03,319.3 281.03,319.3 -23.31,-174.9 -144.08,-286.7 -246.66,-364.57 -24.31,-18.45 -54.91,-42.46 -90.27,-70.27 -91.06,-71.52 -203.76,-159.97 -302.68,-227.36 113.85,20.33 229.9,36.57 346.48,48.27 71.14,40.15 153.77,82.65 233.82,123.79 88.81,45.67 172.69,88.78 238.09,126.98 141.3,82.56 382.7,273.26 382.7,273.26 -99.4,-139.1 -205.3,-235.4 -354.1,-322.34 -66.7,-38.96 -151.16,-82.42 -240.7,-128.44 -42.28,-21.76 -85.35,-43.86 -126.95,-65.79 78.07,-2.52 155.82,-17.94 231.63,-32.97 29.82,-5.95 60.72,-12.09 90.62,-17.18 25.3,-4.31 52.7,-7.8 79.2,-11.15 36.7,-4.66 74.5,-9.48 109.5,-16.75 24.2,-5.02 49.8,-15.29 74.6,-25.24 25.5,-10.22 51.5,-20.52 75.1,-25.08 11.1,77.98 63.2,111.48 103,136.87 24.6,15.75 47.9,30.61 65.7,55.57 16,22.34 16,22.34 -7.5,50.74 -19.7,23.87 -46.7,56.53 -50.9,105.74 -5.5,64.62 38,113.22 76.3,156.12 24.2,27.1 49.2,55.1 53.1,77.7 6.4,37.4 -1.1,68.8 -22.7,96.1 -51.3,64.4 -174.2,99.2 -273.3,104.9 -226.3,13.3 -364.7,81.5 -493.43,243.4 -16.3,20.5 -32.27,41.3 -48.2,62.1 -87.34,114.1 -169.86,221.9 -308.12,267.8 -69.06,22.9 -116.58,-4.5 -188.3,-51.2 -80.06,-52.2 -179.66,-117 -318.19,-35.4 -50.19,29.6 -98.02,65 -144.29,99.3 -97.18,72.1 -189.03,140.2 -300.05,156.9 -117.52,17.7 -335.99,-50.7 -410.08,-128.3 -75.92,-79.5 -113.85,-194.7 -154.03,-316.7 -29.92,-90.8 -60.88,-184.6 -109.66,-266.7 v 0 c -0.58,-0.9 -1.05,-1.9 -1.57,-2.8 -87.76,-146.2 -207.06,-262.8 -322.43,-375.6"
         inkscape:connector-curvature="0" /><path
         id="path150"
         style="fill:#100f0d;fill-opacity:1;fill-rule:nonzero;stroke:none"
         d="m 7205.91,9141.56 6.86,16.08 14.72,9.49 c 3.62,2.3 7.33,4.24 11.06,6.07 -30.66,69.95 -58.32,150.01 -75.14,231.16 -1.73,-82.78 -2.98,-171.74 -3.45,-267.73 12.47,-8.59 24.46,-19.59 35.94,-33.47 1.26,12.2 4.35,25.04 10.01,38.4"
         inkscape:connector-curvature="0" /><path
         id="path152"
         style="fill:#100f0d;fill-opacity:1;fill-rule:nonzero;stroke:none"
         d="m 9690.95,6770.99 c -37.25,41.03 -75.71,83.52 -105.99,139.21 -47.57,87.65 -98.81,169.18 -152.15,242.21 -36.31,49.67 -81.94,98.08 -130.25,149.32 l -0.68,0.73 c 8.44,-66.53 8.28,-128.51 8.28,-133.02 -0.21,-36.26 -7.65,-66.28 -19.96,-91.48 3.04,-2.04 6.07,-4.08 9.06,-6.13 75.71,-50.66 147.12,-98.5 228.64,-197.88 77.07,-93.95 140.83,-193.6 201.72,-374.56 0,0 -170.49,246.82 -245.67,338.51 -76.18,92.89 -141.1,136.38 -216.28,186.73 -3.35,2.25 -6.81,4.55 -10.17,6.86 -42.43,-44.22 -103.21,-67.28 -154.61,-85.77 101.59,-30.96 225.19,-107.14 363.92,-269.35 100.55,-117.52 245.83,-409.29 324.37,-844.73 0,0 -271.61,695.67 -367.54,807.79 -172,201.14 -314.57,260.08 -416.47,266.84 -28.13,-15.4 -50.92,-34.47 -63.45,-61.56 -5.08,-11 -7.33,-18.55 -8.38,-23.26 22.43,-6.76 79.37,-4.2 114.9,-2.57 85.03,3.82 173,7.86 221.78,-42.81 15.93,-16.55 34.11,-46 30.23,-92.37 -2.31,-28.24 -19.96,-47.78 -32.85,-61.98 -10.38,-11.47 -17.19,-19.49 -17.29,-25.77 -0.16,-11.11 4.03,-17.08 21.01,-35.16 15.09,-15.98 35.68,-37.88 42.02,-70.52 1.31,-6.6 1.99,-12.89 2.36,-18.97 47.72,-49.14 96.61,-113.84 126.84,-169.91 26.87,-49.82 49.98,-103.84 72.3,-156.02 22.63,-52.97 44.01,-103.01 66.8,-142.56 0,0 -77.54,34.26 -119.09,120.19 -24.1,49.98 -44.32,103.84 -69.99,151.41 -22.59,41.76 -56.27,88.76 -91.43,129.05 -2.15,-3.88 -4.35,-7.5 -6.55,-10.64 -25.36,-36.05 -69.58,-58.42 -135.12,-68.43 -27.4,-4.19 -57.74,-6.23 -95.51,-6.34 -14.41,-0.1 -30.5,1.11 -47.47,2.31 -29.71,2.15 -63.35,4.56 -90.43,0.42 -17.55,-2.67 -26.83,-7.07 -32.01,-11.42 1.15,-0.58 2.2,-1.1 3.19,-1.57 26.88,-13.26 90.54,-44.69 84.93,-121.92 153.99,-66.02 266.84,-128.52 391.64,-241.17 26.25,-23.68 50.56,-49.4 74.08,-74.24 101.17,-106.93 159.43,-159.69 277.16,-95.77 84.87,46.11 123.54,147.38 140.99,224.19 53.49,235.19 -13.88,559.55 -109.87,692.48 -20.38,28.18 -43.01,53.18 -67.01,79.63"
         inkscape:connector-curvature="0" /><path
         id="path154"
         style="fill:#100f0d;fill-opacity:1;fill-rule:nonzero;stroke:none"
         d="m 10886.2,9227.96 c -8.3,19.22 -89.4,35.1 -133,43.64 -58.3,11.42 -118.6,23.21 -162.8,50.14 -9.1,5.55 -18.3,10.85 -27.3,16.08 -64.5,37.41 -144.1,83.94 -155.3,196.54 -32,4.54 -64.1,17.26 -95.4,29.83 -23.5,9.45 -45.8,18.38 -65,22.36 -32.8,6.82 -69.6,11.47 -105.1,16 -27.2,3.43 -55.2,6.99 -81.7,11.5 -30.6,5.24 -61.89,11.45 -92.12,17.45 -95.36,18.96 -194.02,38.55 -288.27,30.37 -162.83,-14.12 -325.36,-37.42 -482.54,-68.48 206.64,16.13 406.31,16.01 579.88,-28.69 177.04,-45.56 283.95,-86.06 423.95,-160.5 66.3,-35.36 138.5,-66.95 208.3,-97.5 54,-23.63 109.8,-48.09 163.8,-74.5 0,0 -133.1,-1 -186.6,22.43 -70.8,30.96 -144,63.02 -212.3,99.38 -135.4,72.1 -239.18,111.37 -411.29,155.66 -266.37,68.6 -603.98,27.25 -930.55,-12.74 l -39.66,-4.84 c -71.62,-22.12 -140.88,-45.83 -206.8,-71.22 -111.17,-42.86 -222.25,-94.36 -332.17,-153.62 130.36,-3.61 275.48,23.32 406.52,47.63 50.56,9.37 98.29,18.33 142.66,24.93 56.75,8.55 115.38,19.28 172.22,29.71 143.87,26.3 292.56,53.5 436.75,51.55 206.22,-2.82 496.47,-29.02 708.22,-137.94 48.5,-25 99.8,-61.51 149.4,-96.88 75.8,-53.96 154.1,-109.71 224.4,-126.89 0,0 -177.2,23.57 -257.3,80.63 -50.2,35.73 -97.6,69.52 -142.5,92.63 -201.94,103.84 -482.87,128.88 -683.01,131.61 -138.63,1.89 -284.54,-24.78 -425.69,-50.66 -57.37,-10.48 -116.52,-21.33 -174,-29.92 -43.59,-6.6 -90.74,-15.35 -140.72,-24.63 -163.1,-30.28 -347.42,-64.39 -505.49,-41.18 -48.31,-28.08 -96.4,-57.63 -144.08,-88.7 -34.58,-22.58 -68.22,-49.61 -101.07,-77.8 153.62,9.43 334.59,45.27 524.67,82.94 206.37,40.97 419.82,83.3 641.34,103.21 153.09,13.78 368.42,7.49 525.08,-100.59 116.73,-80.53 133.5,-189.67 149.63,-295.19 9.12,-59.51 18.55,-121.13 46.21,-178.23 0,0 -92.63,105.93 -102.37,169.64 -15.67,102.17 -29.19,190.4 -125.69,256.99 -142.72,98.44 -344.02,103.74 -487.73,90.8 -218.58,-19.65 -430.46,-61.72 -635.42,-102.33 -221.52,-43.95 -430.93,-85.4 -603.15,-86.39 -68.27,-60.31 -138.94,-120.03 -221.04,-155.98 14.09,-7.49 28.55,-14.3 43.7,-20.12 7.38,-2.88 14.71,-5.39 22.11,-7.8 137.21,47.1 263.27,77.49 385.55,106.83 46.32,11.11 90.12,21.63 133.45,32.79 113.32,29.29 245.67,47.11 373.61,64.34 49.78,6.71 96.72,13.05 141.88,19.96 219.16,33.43 365.18,-3.66 543.37,-79 137.84,-58.26 194.9,-154.93 255.31,-257.3 26.56,-45.11 54.12,-91.69 89.85,-137.06 0,0 -111.23,61.45 -138.79,108.13 -57.94,98.14 -107.93,182.91 -228.54,233.89 -172.84,73.08 -305.71,106.72 -512.61,75.18 -45.68,-7.02 -92.89,-13.36 -142.87,-20.12 -126.27,-17.03 -256.94,-34.58 -367.02,-63.03 -43.79,-11.31 -87.8,-21.85 -134.38,-33.06 -91.95,-22.05 -186.05,-44.79 -285.07,-74.66 93.89,-8.38 190.34,6.24 296.54,22.43 l 21.27,3.25 c 44.48,6.75 83.68,19.28 125.17,32.48 33.79,10.79 68.79,21.9 107.51,30.23 13.83,2.98 26.04,5.24 37.41,6.97 124.12,18.96 159.64,-34.63 208.84,-108.82 l 11,-16.66 c 31.12,-46.47 105.83,-73.56 178.08,-99.7 98.97,-35.84 211.15,-76.55 241.22,-183.28 19.33,-68.68 -20.07,-157.23 -124.02,-278.73 l -3.03,-3.56 c -70.57,-82.52 -74.77,-87.44 -38.82,-173.16 24.25,-57.74 79.11,-97.55 137.16,-139.68 42.02,-30.54 86.71,-62.92 120.4,-104.26 15.14,11.11 34.21,29.19 46.21,40.61 16.97,16.13 33.01,31.38 49.04,42.38 78.53,53.96 149.79,74.4 221.99,92.21 78.74,19.44 97.45,24.1 128.99,86.71 14.62,29.08 14.67,47.68 14.83,75.81 0.05,20.86 0.15,46.79 6.86,78.23 34.84,164.04 202.28,210.88 336.83,248.55 52.5,14.72 102.1,28.61 138.2,47 l 12.3,6.28 c 160.2,81.79 325.8,166.35 463.4,265.79 111,80.22 193.3,215.65 273,346.58 14.8,24.42 29.4,48.46 44,71.73 21,33.63 21.8,49.93 20.2,53.39"
         inkscape:connector-curvature="0" /><path
         id="path156"
         style="fill:#100f0d;fill-opacity:1;fill-rule:nonzero;stroke:none"
         d="m 4999.82,5968.44 c 39.6,134.6 107.88,247.61 180.16,367.22 12.63,20.96 25.37,42.07 38.05,63.39 17.78,30.02 36.4,59.89 54.42,88.76 33.95,54.28 69,110.44 98.29,167.65 6.6,12.84 14.88,27.72 24.42,44.91 26.51,47.67 61.14,110.13 89.85,183.27 -29.81,47.57 -39.72,109.76 -26.72,173.73 1.73,8.23 3.77,16.29 6.13,24.21 -82.78,-49.46 -163.68,-120.82 -197.63,-164.31 -73.97,-94.62 -133.86,-174.68 -175.08,-270.56 -55.82,-129.88 -87.55,-281.45 -118.23,-428.1 -12.65,-60.46 -25.72,-123.02 -40.39,-183.48 0,0 -25.09,111.29 -8.91,225.24 21.45,151.15 57.24,273.7 115.3,408.82 43.95,102.11 105.97,185.16 182.5,283.08 46.44,59.36 171.71,167.76 287.81,216.28 14.83,17.81 32.07,32.59 51.29,43.59 23.11,13.15 49.04,21.85 79.38,26.46 17.45,2.67 33.95,3.72 49.93,4.77 13.62,0.89 26.46,1.72 37.99,3.45 26.45,4.09 40.44,12.32 53.38,31.44 10.95,16.24 22.53,39.14 15.35,56.37 -8.59,20.7 -42.23,39.46 -85.76,47.79 -15.46,2.98 -31.81,4.82 -47.68,6.65 -26.2,2.99 -56.06,6.45 -84.88,16.24 -169.23,-96.72 -407.54,-362.82 -501.86,-491.39 0,0 75.34,237.44 445.07,523.14 -23.58,20.28 -43.38,49.78 -55.17,93.78 -18.97,70.58 4.3,121.87 21.27,159.33 15.77,34.79 22.37,51.4 13.15,79.17 -7.44,22.58 -20.59,41.12 -34.47,60.77 -12.42,17.5 -27.25,38.57 -36.47,63.82 -35.15,-46.11 -69.52,-119.61 -93.94,-171.85 -5.08,-10.9 -9.9,-21.17 -14.35,-30.6 -35.37,-73.87 -70.16,-160.58 -106.26,-265.05 -59.02,-170.65 -126.38,-350.2 -242.58,-505.49 -42.49,-56.8 -91,-105.31 -137.93,-152.25 -24.31,-24.31 -49.46,-49.51 -72.88,-75.03 -70.39,-76.6 -86.43,-120.5 -101.83,-222.25 -24.36,-161.05 -33.07,-331.49 -25.15,-492.86 8.04,-164.46 181.99,-578.16 356.65,-650.98 4.9,-1.99 9.76,-3.67 14.54,-5.14 -80.79,276.01 -61.52,460.02 -6.76,646.01"
         inkscape:connector-curvature="0" /><path
         id="path158"
         style="fill:#100f0d;fill-opacity:1;fill-rule:nonzero;stroke:none"
         d="m 5806.02,6355.41 c 0.26,17.71 0.26,17.71 -8.54,27.3 -4.19,4.61 -20.17,9.43 -33.06,13.36 -31.44,9.59 -74.5,22.68 -101.38,66.48 -6.65,10.75 -11.68,21.28 -15.56,31.7 -55.64,-67.69 -108.4,-143.82 -140.57,-205.48 -12.42,-23.73 -26.14,-47.63 -39.35,-70.68 -44.48,-77.54 -152.36,-244.1 -152.36,-244.1 5.87,103.01 55.28,189.14 103.06,272.39 13.57,23.63 26.4,45.95 38.3,68.74 41.08,78.59 113.85,179.6 185.26,259.82 14.67,68.21 74.24,126.58 118.83,170.17 14.25,13.94 33.69,33.01 45.26,47.1 -3.4,1.31 -7.54,2.72 -12.52,4.19 -22.73,6.81 -53.65,5.45 -86.39,3.98 -56.8,-2.56 -125.06,-5.55 -179.76,36.16 -27.51,-65.02 -58.21,-120.35 -82.42,-163.84 -9.32,-16.71 -17.39,-31.17 -23.52,-43.17 -30.39,-59.36 -66.12,-116.52 -100.6,-171.8 -17.86,-28.6 -36.36,-58.2 -53.8,-87.65 -12.74,-21.48 -25.57,-42.7 -38.31,-63.76 -70.3,-116.42 -136.74,-226.39 -174.27,-353.91 -54.58,-185.48 -71.37,-358.63 12.14,-632.07 22.37,5.5 44.46,18.18 66.92,38.4 72.54,65.23 121.26,184.16 168.31,299.17 26.24,64.07 51.03,124.59 80.21,177.55 89.85,163.05 268.15,368.33 427.74,457.13 -0.74,5.55 -1.42,11.27 -2,17.24 -1.93,19.17 -1.78,34.47 -1.62,45.58"
         inkscape:connector-curvature="0" /></g></g></svg>